<svg xmlns="http://www.w3.org/2000/svg" width="390" height="390" style="width:100%;height:100%;transform:translate3d(0,0,0)"><defs><clipPath id="a"><path d="M0 0h390v390H0z"/></clipPath></defs><g clip-path="url(#a)"><g opacity=".1" style="display:block"><path fill="#221F1F" d="M198.828 369.68c0 4.384-24.401 7.937-54.5 7.937-30.1 0-54.5-3.553-54.5-7.937s24.4-7.937 54.5-7.937c30.099 0 54.5 3.553 54.5 7.937z" opacity="1"/></g><g style="display:block"><path fill="#AE8638" d="M171.595 351.477c-5.026 0-10.324-1.116-15.67-3.898-23.383-12.164-25.811-35.826-25.903-36.828a4.951 4.951 0 0 1 4.477-5.382 4.948 4.948 0 0 1 5.38 4.462c.086.849 2.175 19.373 20.615 28.965 17.606 9.161 33.108-6.793 33.759-7.476 1.883-1.975 5.014-2.061 6.992-.185a4.94 4.94 0 0 1 .206 6.98c-5.252 5.581-16.603 13.362-29.856 13.362z"/><path fill="#D11" d="M210.812 343.862c1.436-.672 3.347-.798 4.749-2.601 1.397-1.802 1.047-3.687 1.341-5.244.541-1.491 1.804-2.934 1.517-5.199-.281-2.264-1.865-3.348-2.758-4.657-.672-1.435-.799-3.348-2.602-4.747-1.803-1.401-3.686-1.048-5.244-1.345-1.491-.539-2.933-1.804-5.199-1.518-2.261.287-3.348 1.869-4.658 2.761-1.435.671-3.348.798-4.747 2.602-1.399 1.801-1.049 3.685-1.343 5.243-.541 1.49-1.804 2.934-1.517 5.196.283 2.266 1.865 3.35 2.758 4.66.673 1.435.798 3.349 2.6 4.748 1.803 1.399 3.689 1.049 5.244 1.342 1.492.54 2.937 1.806 5.201 1.519 2.262-.285 3.348-1.867 4.658-2.76z"/></g><g style="display:block"><path fill="#FFD769" d="M233.146 279.198c-12.793-17.522-32.146-30.054-50.774-36.584-2.222-9.878-4.101-16.536-4.101-16.536h-68.152s-1.786 6.333-3.936 15.808C86.906 248.185 66.546 261 53.26 279.198c-16.049 21.984 8.457 39.554 24.434 22.556 10.331-11.238 15.642-17.264 21.879-20.497-.21 2.256-.381 4.499-.503 6.709-.522 9.453-1.695 17.188-1.45 23.301-.077 2.419-.183 20.031 11.224 49.14 0 0-12.306 11.599 17.012 9.821 27.802-1.684 4.74-25.087 18.339-40.164 13.599 15.077-9.466 38.48 18.338 40.164 29.32 1.778 17.012-9.821 17.012-9.821 11.372-29.022 11.301-46.613 11.226-49.116.25-6.116-.928-13.861-1.451-23.325-.1-1.816-.233-3.652-.395-5.501 5.412 3.457 10.625 9.325 19.786 19.289 15.978 16.998 40.484-.572 24.435-22.556z"/><path fill="none" stroke="#DBAF5A" stroke-linecap="round" stroke-linejoin="round" stroke-width="3" d="M233.146 279.198c-12.793-17.522-32.146-30.054-50.774-36.584-2.222-9.878-4.101-16.536-4.101-16.536h-68.152s-1.786 6.333-3.936 15.808C86.906 248.185 66.546 261 53.26 279.198c-16.049 21.984 8.457 39.554 24.434 22.556 10.331-11.238 15.642-17.264 21.879-20.497-.21 2.256-.381 4.499-.503 6.709-.522 9.453-1.695 17.188-1.45 23.301-.077 2.419-.183 20.031 11.224 49.14 0 0-12.306 11.599 17.012 9.821 27.802-1.684 4.74-25.087 18.339-40.164 13.599 15.077-9.466 38.48 18.338 40.164 29.32 1.778 17.012-9.821 17.012-9.821 11.372-29.022 11.301-46.613 11.226-49.116.25-6.116-.928-13.861-1.451-23.325-.1-1.816-.233-3.652-.395-5.501 5.412 3.457 10.625 9.325 19.786 19.289 15.978 16.998 40.484-.572 24.435-22.556z"/></g><g style="display:block"><path fill="#D11" d="M239.159 202.14c5.757-11.252 17.189-21.411 17.191-39.608-.002-18.199-11.433-28.355-17.191-39.606-3.884-12.027-2.983-27.296-15.851-40.163-12.869-12.869-28.136-11.967-40.163-15.854-11.253-5.758-21.41-17.189-39.607-17.189-18.2 0-28.358 11.437-39.612 17.192-12.026 3.885-27.291 2.983-40.158 15.851-12.87 12.869-11.966 28.138-15.854 40.168-5.755 11.248-17.188 21.404-17.187 39.604 0 18.197 11.435 28.357 17.192 39.611 3.883 12.025 2.984 27.292 15.851 40.155 12.866 12.868 28.133 11.965 40.16 15.852 11.253 5.758 21.41 17.189 39.608 17.189 18.197 0 28.354-11.431 39.607-17.189 12.026-3.887 27.296-2.984 40.163-15.851 12.868-12.867 11.964-28.134 15.851-40.162z"/><path fill="none" stroke="#BB0F0F" stroke-linecap="round" stroke-linejoin="round" stroke-width="3" d="M239.159 202.14c5.757-11.252 17.189-21.411 17.191-39.608-.002-18.199-11.433-28.355-17.191-39.606-3.884-12.027-2.983-27.296-15.851-40.163-12.869-12.869-28.136-11.967-40.163-15.854-11.253-5.758-21.41-17.189-39.607-17.189-18.2 0-28.358 11.437-39.612 17.192-12.026 3.885-27.291 2.983-40.158 15.851-12.87 12.869-11.966 28.138-15.854 40.168-5.755 11.248-17.188 21.404-17.187 39.604 0 18.197 11.435 28.357 17.192 39.611 3.883 12.025 2.984 27.292 15.851 40.155 12.866 12.868 28.133 11.965 40.16 15.852 11.253 5.758 21.41 17.189 39.608 17.189 18.197 0 28.354-11.431 39.607-17.189 12.026-3.887 27.296-2.984 40.163-15.851 12.868-12.867 11.964-28.134 15.851-40.162z"/><path fill="#FFD769" d="M143.539 237.201c-43.534 0-80.815-17.555-80.815-65.963 0-48.408 37.281-83.225 80.815-83.225 43.536 0 80.813 34.817 80.813 83.225 0 48.408-37.277 65.963-80.813 65.963z"/><path fill="#FFF" d="M157.628 167.326c-5.918 0-11.031 3.398-13.529 8.343-2.497-4.945-7.61-8.343-13.528-8.343-8.375 0-15.162 6.787-15.162 15.162 0 8.372 6.787 15.16 15.162 15.16 5.918 0 11.031-3.399 13.528-8.344 2.498 4.945 7.611 8.344 13.529 8.344 8.373 0 15.161-6.788 15.161-15.16 0-8.375-6.788-15.162-15.161-15.162z"/><path fill="#221F1F" d="M113.732 160.325a5.996 5.996 0 0 1-5.996 5.996 5.996 5.996 0 1 1 0-11.994 5.997 5.997 0 0 1 5.996 5.998zM185.252 160.325a5.91 5.91 0 0 1-5.91 5.908 5.908 5.908 0 0 1-5.907-5.908 5.908 5.908 0 1 1 11.817 0z"/><path fill="#D11" d="M156.127 168.689c0 7.533-5.637 12.642-12.589 12.642-6.954 0-12.589-5.109-12.589-12.642 0-7.534 5.635-17.864 12.589-17.864 6.952 0 12.589 10.33 12.589 17.864z"/><path fill="#221F1F" d="M152.566 171.943c0 2.794-4.041 6.552-9.027 6.552-4.988 0-9.029-3.758-9.029-6.552 0-2.793 4.041-5.51 9.029-5.51 4.986 0 9.027 2.717 9.027 5.51z"/></g><g opacity=".1" style="display:block"><path fill="#221F1F" d="M339.259 369.679c0 2.528-10.97 4.577-24.5 4.577-13.531 0-24.5-2.049-24.5-4.577s10.969-4.578 24.5-4.578c13.53 0 24.5 2.05 24.5 4.578z" opacity="1"/></g><g style="display:block"><path fill="#963" d="M328.608 346.615s-1.669 9.484 4.965 13.717c6.634 4.234-7.551 4.811-17.352-4.113"/><path fill="#221F1F" d="M271.607 274.107s-11.919 6.458-11.919 18.295c0 11.833 9.058 17.469 15.916 15.018M352.563 274.107s11.918 6.458 11.918 18.295c0 11.833-9.058 17.469-15.916 15.018"/><path fill="#DDAB6B" d="M298.094 359.69s.7 10.203 6.931 11.119c6.231.913 5.224-3.338 4.888-7.931"/><path fill="none" stroke="#C99655" stroke-miterlimit="10" stroke-width="2" d="M298.094 359.69s.7 10.203 6.931 11.119c6.231.913 5.224-3.338 4.888-7.931"/><path fill="#DDAB6B" d="M326.304 359.69s-.701 10.203-6.933 11.119c-6.229.913-5.221-3.338-4.886-7.931"/><path fill="none" stroke="#C99655" stroke-miterlimit="10" stroke-width="2" d="M326.304 359.69s-.701 10.203-6.933 11.119c-6.229.913-5.221-3.338-4.886-7.931"/><path fill="#DDAB6B" d="M327.454 319.615c1.005-.443 2.066-.743 3.146-.948 14.304-2.724 25.897-10.307 25.897-29.474 0-27.12-19.946-39.949-44.552-39.949-24.605 0-44.552 12.829-44.552 39.949 0 16.505 7.056 23.707 18.617 27.289 0 0 3.931 1.204 6.004 1.716.674.166 1.335.384 1.975.655 1.514.643 2.96 1.487 3.9 2.572.712.824.805 2.006.337 2.991-2.846 5.994-4.973 13.06-5.845 19.277-2.003 14.265 8.265 21.718 19.694 21.794 11.531.075 21.755-7.273 19.384-21.529-1.078-6.479-3.432-13.916-6.501-20.114-.503-1.015-.35-2.272.492-3.032.544-.491 1.254-.866 2.004-1.197z"/><path fill="none" stroke="#C99655" stroke-miterlimit="10" stroke-width="2" d="M327.454 319.615c1.005-.443 2.066-.743 3.146-.948 14.304-2.724 25.897-10.307 25.897-29.474 0-27.12-19.946-39.949-44.552-39.949-24.605 0-44.552 12.829-44.552 39.949 0 16.505 7.056 23.707 18.617 27.289 0 0 3.931 1.204 6.004 1.716.674.166 1.335.384 1.975.655 1.514.643 2.96 1.487 3.9 2.572.712.824.805 2.006.337 2.991-2.846 5.994-4.973 13.06-5.845 19.277-2.003 14.265 8.265 21.718 19.694 21.794 11.531.075 21.755-7.273 19.384-21.529-1.078-6.479-3.432-13.916-6.501-20.114-.503-1.015-.35-2.272.492-3.032.544-.491 1.254-.866 2.004-1.197z"/><path fill="#FFF" d="M352.283 285.49c0 27.076-18.061 31.597-40.338 31.597-22.278 0-40.338-4.521-40.338-31.597 0-27.077 40.338-24.773 40.338-7.814 0-16.959 40.338-19.263 40.338 7.814z"/><path fill="#FFF" d="M313.02 315.81h-2.842l-15.815-.171s8.383 1.174 8.868 9.002c.481 7.746-5.774 28.079 8.517 28.079 14.289 0 7.738-20.333 8.219-28.079.486-7.828 9.406-9.002 9.406-9.002l-16.353.171z"/><path fill="#CA9957" d="M306.332 287.409c-1.636 9.918-11.48 17.736-19.23 17.747-7.801-.06-13.121-6.492-12.902-15.636-.352-9.739 6.718-18.081 15.975-18.293 9.138-.053 17.226 6.288 16.157 16.182zM317.839 287.409c1.634 9.918 11.48 17.736 19.229 17.747 7.801-.06 13.121-6.492 12.9-15.636.354-9.739-6.716-18.081-15.973-18.293-9.138-.053-17.225 6.288-16.156 16.182z"/><path fill="#221F1F" d="M301.509 287.415c.574 5.738-.805 10.575-5.945 11.09-5.14.515-7.451-3.952-8.025-9.694-.573-5.739.805-10.574 5.946-11.088 5.14-.514 7.451 3.952 8.024 9.692z"/><path fill="#FFF" d="M295.314 285.221c0 1.989-1.246 3.604-2.781 3.604-1.536 0-2.781-1.615-2.781-3.604 0-1.988 1.245-3.602 2.781-3.602 1.535 0 2.781 1.614 2.781 3.602z"/><path fill="#221F1F" d="M337.7 288.782c-.548 5.74-2.838 10.219-7.981 9.729-5.144-.492-6.542-5.323-5.995-11.063.547-5.742 2.837-10.221 7.98-9.729 5.144.491 6.543 5.321 5.996 11.063z"/><path fill="#FFF" d="M332.172 285.221c0 1.989-1.245 3.604-2.779 3.604-1.535 0-2.781-1.615-2.781-3.604 0-1.988 1.246-3.602 2.781-3.602 1.534 0 2.779 1.614 2.779 3.602z"/><path fill="#DDAB6B" d="M298.692 325.673s-3.731 6.078-5.074 13.192c-1.989 11.402 3.955 16.669 7.103 15.222 4.726-2.036 1.015-8.118 1.015-14.207"/><path fill="#C99655" d="M298.692 325.672c-1.67 3.74-3.038 7.574-3.883 11.481-.411 1.949-.665 3.91-.634 5.874-.003 1.951.268 3.894.913 5.671.619 1.758 1.683 3.434 3.149 4.282.72.424 1.503.573 2.132.31.819-.34 1.415-.819 1.732-1.575.327-.754.35-1.719.309-2.688-.051-.979-.198-1.982-.338-2.993-.269-2.019-.55-4.105-.336-6.155.226 2.043.754 3.988 1.287 5.965.257.992.506 1.994.677 3.046.155 1.049.23 2.186-.149 3.364a4.177 4.177 0 0 1-.973 1.601c-.44.456-.982.782-1.5 1.026-1.267.598-2.706.31-3.743-.25-2.146-1.174-3.346-3.229-4.124-5.254-1.433-4.179-1.097-8.599.066-12.607a36.179 36.179 0 0 1 5.415-11.098z"/></g><path fill="#D11" d="M-5.519-5.921S-5.916 5.921 0 5.921 5.52-5.921 5.52-5.921" style="display:block" transform="translate(312.229 304.898)"/><g style="display:block"><path fill="#FFF" d="M302.561 297.573s-.434 4.511 5.103 4.293c5.537-.217 4.486-5.026 4.486-8.6"/><path fill="none" stroke="#221F1F" stroke-linecap="round" stroke-linejoin="round" stroke-width="2.03" d="M302.561 297.573s-.434 4.511 5.103 4.293c5.537-.217 4.486-5.026 4.486-8.6"/><path fill="#FFF" d="M321.845 297.573s.433 4.511-5.104 4.293c-5.537-.217-4.486-5.026-4.486-8.6"/><path fill="none" stroke="#221F1F" stroke-linecap="round" stroke-linejoin="round" stroke-width="2.03" d="M321.845 297.573s.433 4.511-5.104 4.293c-5.537-.217-4.486-5.026-4.486-8.6"/><path fill="#221F1F" d="M317.142 290.551c0 2.975-2.209 3.738-4.936 3.738-2.723 0-4.934-.763-4.934-3.738 0-2.973 2.211-2.971 4.934-2.971 2.727 0 4.936-.002 4.936 2.971z"/></g><g style="display:block"><path fill="#DDAB6B" d="M324.645 325.673s3.731 6.078 5.074 13.192c1.989 11.402-3.955 16.669-7.103 15.222-4.726-2.036-1.015-8.118-1.015-14.207"/><path fill="#C99655" d="M324.645 325.671a36.184 36.184 0 0 1 5.415 11.099c1.163 4.008 1.499 8.427.066 12.606-.779 2.025-1.978 4.08-4.124 5.254-1.038.56-2.476.848-3.744.25-.517-.244-1.059-.57-1.499-1.026a4.164 4.164 0 0 1-.973-1.601c-.379-1.178-.304-2.315-.149-3.364.17-1.052.42-2.053.677-3.045.532-1.977 1.061-3.923 1.287-5.966.214 2.05-.068 4.136-.336 6.155-.14 1.011-.287 2.014-.338 2.993-.041.969-.018 1.934.309 2.688.317.756.913 1.235 1.732 1.575.629.263 1.412.114 2.132-.31 1.466-.848 2.53-2.524 3.149-4.282.645-1.777.916-3.72.913-5.671.031-1.964-.224-3.925-.634-5.874-.845-3.907-2.214-7.741-3.883-11.481z"/></g></g></svg>