<svg xmlns="http://www.w3.org/2000/svg" width="1920" height="1080" style="width:100%;height:100%;transform:translate3d(0,0,0)"><defs><linearGradient id="L" x1="38.223" x2="-32.058" y1="-38.223" y2="32.058" gradientUnits="userSpaceOnUse" spreadMethod="pad"><stop offset="0%" stop-color="#F33"/><stop offset="80%" stop-color="#F99"/><stop offset="100%" stop-color="#FFF"/></linearGradient><linearGradient id="a" x1="38.223" x2="-32.058" y1="-38.223" y2="32.058" gradientUnits="userSpaceOnUse" spreadMethod="pad"><stop offset="0%" stop-color="#FFF"/><stop offset="50%" stop-color="#FFF" stop-opacity=".5"/><stop offset="100%" stop-color="#FFF" stop-opacity="0"/></linearGradient><linearGradient id="J" x1="38.223" x2="-32.058" y1="-38.223" y2="32.058" gradientUnits="userSpaceOnUse" spreadMethod="pad"><stop offset="0%" stop-color="#F33"/><stop offset="80%" stop-color="#F99"/><stop offset="100%" stop-color="#FFF"/></linearGradient><linearGradient id="b" x1="38.223" x2="-32.058" y1="-38.223" y2="32.058" gradientUnits="userSpaceOnUse" spreadMethod="pad"><stop offset="0%" stop-color="#FFF"/><stop offset="50%" stop-color="#FFF" stop-opacity=".5"/><stop offset="100%" stop-color="#FFF" stop-opacity="0"/></linearGradient><linearGradient id="H" x1="38.223" x2="-32.058" y1="-38.223" y2="32.058" gradientUnits="userSpaceOnUse" spreadMethod="pad"><stop offset="0%" stop-color="#F33"/><stop offset="80%" stop-color="#F99"/><stop offset="100%" stop-color="#FFF"/></linearGradient><linearGradient id="c" x1="38.223" x2="-32.058" y1="-38.223" y2="32.058" gradientUnits="userSpaceOnUse" spreadMethod="pad"><stop offset="0%" stop-color="#FFF"/><stop offset="50%" stop-color="#FFF" stop-opacity=".5"/><stop offset="100%" stop-color="#FFF" stop-opacity="0"/></linearGradient><linearGradient id="F" x1="38.223" x2="-32.058" y1="-38.223" y2="32.058" gradientUnits="userSpaceOnUse" spreadMethod="pad"><stop offset="0%" stop-color="#F33"/><stop offset="80%" stop-color="#F99"/><stop offset="100%" stop-color="#FFF"/></linearGradient><linearGradient id="d" x1="38.223" x2="-32.058" y1="-38.223" y2="32.058" gradientUnits="userSpaceOnUse" spreadMethod="pad"><stop offset="0%" stop-color="#FFF"/><stop offset="50%" stop-color="#FFF" stop-opacity=".5"/><stop offset="100%" stop-color="#FFF" stop-opacity="0"/></linearGradient><linearGradient id="B" x1="864.485" x2="572.247" y1="-64.588" y2="-19.391" gradientUnits="userSpaceOnUse" spreadMethod="pad"><stop offset="0%" stop-color="#F33"/><stop offset="69%" stop-color="#F99"/><stop offset="100%" stop-color="#FFF"/></linearGradient><linearGradient id="e" x1="864.485" x2="572.247" y1="-64.588" y2="-19.391" gradientUnits="userSpaceOnUse" spreadMethod="pad"><stop offset="0%" stop-color="#FFF"/><stop offset="50%" stop-color="#FFF" stop-opacity=".5"/><stop offset="100%" stop-color="#FFF" stop-opacity="0"/></linearGradient><linearGradient id="y" x1="864.485" x2="67.184" y1="-64.588" y2="-20.58" gradientUnits="userSpaceOnUse" spreadMethod="pad"><stop offset="0%" stop-color="#F33"/><stop offset="69%" stop-color="#F99"/><stop offset="100%" stop-color="#FFF"/></linearGradient><linearGradient id="f" x1="864.485" x2="67.184" y1="-64.588" y2="-20.58" gradientUnits="userSpaceOnUse" spreadMethod="pad"><stop offset="0%" stop-color="#FFF"/><stop offset="50%" stop-color="#FFF" stop-opacity=".5"/><stop offset="100%" stop-color="#FFF" stop-opacity="0"/></linearGradient><linearGradient id="v" x1="864.485" x2="589.056" y1="-64.588" y2="-19.214" gradientUnits="userSpaceOnUse" spreadMethod="pad"><stop offset="0%" stop-color="#F33"/><stop offset="69%" stop-color="#F99"/><stop offset="100%" stop-color="#FFF"/></linearGradient><linearGradient id="g" x1="864.485" x2="589.056" y1="-64.588" y2="-19.214" gradientUnits="userSpaceOnUse" spreadMethod="pad"><stop offset="0%" stop-color="#FFF"/><stop offset="50%" stop-color="#FFF" stop-opacity=".5"/><stop offset="100%" stop-color="#FFF" stop-opacity="0"/></linearGradient><linearGradient id="s" x1="864.485" x2="719.424" y1="-64.588" y2="75.463" gradientUnits="userSpaceOnUse" spreadMethod="pad"><stop offset="0%" stop-color="#F33"/><stop offset="69%" stop-color="#F99"/><stop offset="100%" stop-color="#FFF"/></linearGradient><linearGradient id="h" x1="864.485" x2="719.424" y1="-64.588" y2="75.463" gradientUnits="userSpaceOnUse" spreadMethod="pad"><stop offset="0%" stop-color="#FFF"/><stop offset="50%" stop-color="#FFF" stop-opacity=".5"/><stop offset="100%" stop-color="#FFF" stop-opacity="0"/></linearGradient><linearGradient id="p" x1="864.485" x2="787.005" y1="-64.588" y2="12.815" gradientUnits="userSpaceOnUse" spreadMethod="pad"><stop offset="0%" stop-color="#F33"/><stop offset="69%" stop-color="#F99"/><stop offset="100%" stop-color="#FFF"/></linearGradient><linearGradient id="i" x1="864.485" x2="787.005" y1="-64.588" y2="12.815" gradientUnits="userSpaceOnUse" spreadMethod="pad"><stop offset="0%" stop-color="#FFF"/><stop offset="50%" stop-color="#FFF" stop-opacity=".5"/><stop offset="100%" stop-color="#FFF" stop-opacity="0"/></linearGradient><linearGradient id="m" x1="864.485" x2="802.257" y1="-64.588" y2="-6.222" gradientUnits="userSpaceOnUse" spreadMethod="pad"><stop offset="0%" stop-color="#F33"/><stop offset="69%" stop-color="#F99"/><stop offset="100%" stop-color="#FFF"/></linearGradient><linearGradient id="j" x1="864.485" x2="802.257" y1="-64.588" y2="-6.222" gradientUnits="userSpaceOnUse" spreadMethod="pad"><stop offset="0%" stop-color="#FFF"/><stop offset="50%" stop-color="#FFF" stop-opacity=".5"/><stop offset="100%" stop-color="#FFF" stop-opacity="0"/></linearGradient><mask id="M"><path fill="url(#a)" d="M23.578-42.582c-4.81.02-9.61 1.87-13.28 5.54L-64.804 38.06l26.74 26.74 75.112-75.102a18.86 18.86 0 0 0 5.53-13.27v-.2c-.02-4.8-1.87-9.6-5.53-13.27a18.835 18.835 0 0 0-13.28-5.54h-.19z"/></mask><mask id="K"><path fill="url(#b)" d="M23.578-42.582c-4.81.02-9.61 1.87-13.28 5.54L-64.804 38.06l26.74 26.74 75.112-75.102a18.86 18.86 0 0 0 5.53-13.27v-.2c-.02-4.8-1.87-9.6-5.53-13.27a18.835 18.835 0 0 0-13.28-5.54h-.19z"/></mask><mask id="I"><path fill="url(#c)" d="M23.578-42.582c-4.81.02-9.61 1.87-13.28 5.54L-64.804 38.06l26.74 26.74 75.112-75.102a18.86 18.86 0 0 0 5.53-13.27v-.2c-.02-4.8-1.87-9.6-5.53-13.27a18.835 18.835 0 0 0-13.28-5.54h-.19z"/></mask><mask id="G"><path fill="url(#d)" d="M23.578-42.582c-4.81.02-9.61 1.87-13.28 5.54L-64.804 38.06l26.74 26.74 75.112-75.102a18.86 18.86 0 0 0 5.53-13.27v-.2c-.02-4.8-1.87-9.6-5.53-13.27a18.835 18.835 0 0 0-13.28-5.54h-.19z"/></mask><mask id="C"><path fill="url(#e)" d="M856.382-75.249h.19c4.81.02 9.61 1.87 13.28 5.54a18.86 18.86 0 0 1 5.53 13.27v.2c-.02 4.8-1.87 9.6-5.53 13.27l-12.711 11.242-26.74-26.74 12.701-11.242c3.67-3.67 8.47-5.52 13.28-5.54z"/></mask><mask id="A"><path fill="#fff" fill-opacity=".141" d="M925.592 5.761c-9.87 0-17.87 8-17.87 17.87l.291-.071c0 9.87 8.001 17.871 17.871 17.871s17.87-8.001 17.87-17.871l-.291.071c0-9.87-8.001-17.87-17.871-17.87"/></mask><mask id="z"><path fill="url(#f)" d="M856.382-75.249h.19c4.81.02 9.61 1.87 13.28 5.54a18.86 18.86 0 0 1 5.53 13.27v.2c-.02 4.8-1.87 9.6-5.53 13.27l-3.669 2.199-26.74-26.74 3.659-2.199c3.67-3.67 8.47-5.52 13.28-5.54z"/></mask><mask id="x"><path fill="#fff" fill-opacity=".016" d="M925.592 5.761c-9.87 0-17.87 8-17.87 17.87l.291-.071c0 9.87 8.001 17.871 17.871 17.871s17.87-8.001 17.87-17.871l-.291.071c0-9.87-8.001-17.87-17.871-17.87"/></mask><mask id="w"><path fill="url(#g)" d="M856.382-75.249h.19c4.81.02 9.61 1.87 13.28 5.54a18.86 18.86 0 0 1 5.53 13.27v.2c-.02 4.8-1.87 9.6-5.53 13.27l-13.01 11.54-26.74-26.74 13-11.54c3.67-3.67 8.47-5.52 13.28-5.54z"/></mask><mask id="u"><path fill="#fff" fill-opacity=".755" d="M925.648 186.639c-9.87 0-17.87 8-17.87 17.87l-.287 52.14c0 9.87 8 17.87 17.87 17.87 9.87 0 17.87-8 17.87-17.87l.288-52.14c0-9.87-8-17.87-17.87-17.87"/></mask><mask id="t"><path fill="url(#h)" d="M856.382-75.249h.19c4.81.02 9.61 1.87 13.28 5.54a18.86 18.86 0 0 1 5.53 13.27v.2c-.02 4.8-1.87 9.6-5.53 13.27L721.973 103.44l-26.74-26.74L843.102-69.709c3.67-3.67 8.47-5.52 13.28-5.54z"/></mask><mask id="r"><path fill="#fff" fill-opacity=".5" d="M925.592 5.761c-9.87 0-17.87 8-17.87 17.87l.279 23.718c0 9.87 8 17.87 17.87 17.87 9.87 0 17.87-8 17.87-17.87l-.278-23.718c0-9.87-8.001-17.87-17.871-17.87"/></mask><mask id="q"><path fill="url(#i)" d="M856.382-75.249h.19c4.81.02 9.61 1.87 13.28 5.54a18.86 18.86 0 0 1 5.53 13.27v.2c-.02 4.8-1.87 9.6-5.53 13.27L830.198-4.785l-26.74-26.74 39.644-38.184c3.67-3.67 8.47-5.52 13.28-5.54z"/></mask><mask id="o"><path fill="#fff" fill-opacity=".5" d="M925.592 5.761c-9.87 0-17.87 8-17.87 17.87l.291-.071c0 9.87 8.001 17.871 17.871 17.871s17.87-8.001 17.87-17.871l-.291.071c0-9.87-8.001-17.87-17.871-17.87"/></mask><mask id="n"><path fill="url(#j)" d="M856.382-75.249h.19c4.81.02 9.61 1.87 13.28 5.54a18.86 18.86 0 0 1 5.53 13.27v.2c-.02 4.8-1.87 9.6-5.53 13.27L848.453-23.04l-26.74-26.74 21.389-19.929c3.67-3.67 8.47-5.52 13.28-5.54z"/></mask><mask id="l"><path fill="#fff" d="M925.602 243.349c-9.87 0-17.871 8-17.871 17.87l-.144.304c0 9.87 8.001 17.871 17.871 17.871s17.87-8.001 17.87-17.871l.144-.304c0-9.87-8-17.87-17.87-17.87"/></mask><clipPath id="k"><path d="M0 0h1920v1080H0z"/></clipPath><clipPath id="E"><path fill="#fff" d="M925.46 145.263c-9.87 0-17.871 8.001-17.871 17.871l.291-1.313c0 9.87 8 17.871 17.87 17.871 9.87 0 17.87-8.001 17.87-17.871l-.29 1.313c0-9.87-8-17.871-17.87-17.871"/></clipPath><clipPath id="D"><path fill="#fff" d="M925.46 145.263c-9.87 0-17.871 8.001-17.871 17.871l.291-1.313c0 9.87 8 17.871 17.87 17.871 9.87 0 17.87-8.001 17.87-17.871l-.29 1.313c0-9.87-8-17.871-17.87-17.871"/></clipPath></defs><g clip-path="url(#k)"><g mask="url(#l)" style="display:block" transform="rotate(45 545.628 -349.467)"><path fill="#f4c7c7" d="M0 0h1920v1080H0z"/></g><g clip-path="url(#D)" style="display:block" transform="rotate(45 1311.433 786.12)"><path fill="#f4c7c7" d="M0 0h1920v1080H0z"/></g><g clip-path="url(#E)" style="display:block" transform="rotate(45 208.379 1196.766)"><path fill="#f4c7c7" d="M0 0h1920v1080H0z"/></g><path fill="url(#F)" fill-opacity=".3" d="M23.578-42.582c-4.81.02-9.61 1.87-13.28 5.54L-64.804 38.06l26.74 26.74 75.112-75.102a18.86 18.86 0 0 0 5.53-13.27v-.2c-.02-4.8-1.87-9.6-5.53-13.27a18.835 18.835 0 0 0-13.28-5.54h-.19z" mask="url(#G)" style="display:block" transform="matrix(.9 0 0 .9 1007.335 836.958)"/><path fill="url(#H)" fill-opacity=".3" d="M23.578-42.582c-4.81.02-9.61 1.87-13.28 5.54L-64.804 38.06l26.74 26.74 75.112-75.102a18.86 18.86 0 0 0 5.53-13.27v-.2c-.02-4.8-1.87-9.6-5.53-13.27a18.835 18.835 0 0 0-13.28-5.54h-.19z" mask="url(#I)" style="display:block" transform="matrix(.9 0 0 .9 1053.335 200.958)"/><path fill="url(#J)" fill-opacity=".3" d="M23.578-42.582c-4.81.02-9.61 1.87-13.28 5.54L-64.804 38.06l26.74 26.74 75.112-75.102a18.86 18.86 0 0 0 5.53-13.27v-.2c-.02-4.8-1.87-9.6-5.53-13.27a18.835 18.835 0 0 0-13.28-5.54h-.19z" mask="url(#K)" style="display:block" transform="matrix(.9 0 0 .9 1707.335 528.958)"/><path fill="url(#L)" fill-opacity=".3" d="M23.578-42.582c-4.81.02-9.61 1.87-13.28 5.54L-64.804 38.06l26.74 26.74 75.112-75.102a18.86 18.86 0 0 0 5.53-13.27v-.2c-.02-4.8-1.87-9.6-5.53-13.27a18.835 18.835 0 0 0-13.28-5.54h-.19z" mask="url(#M)" style="display:block" transform="matrix(.9 0 0 .9 1569.335 244.958)"/></g></svg>