<svg xmlns="http://www.w3.org/2000/svg" width="1920" height="1080" style="width:100%;height:100%;transform:translate3d(0,0,0)"><defs><clipPath id="a"><path d="M0 0h1920v1080H0z"/></clipPath></defs><g clip-path="url(#a)"><path fill="#FDDB3D" d="M0-5c2.76 0 5 2.24 5 5S2.76 5 0 5s-5-2.24-5-5 2.24-5 5-5z" style="display:block" transform="matrix(1.4 0 0 1.4 1402.915 953.66)"/><path fill="#FDDB3D" d="M0-9c4.967 0 9 4.033 9 9S4.967 9 0 9s-9-4.033-9-9 4.033-9 9-9z" style="display:block" transform="translate(1541.468 190.18)"/><path fill="#FDDB3D" d="M0-55c30.354 0 55 24.646 55 55S30.354 55 0 55-55 30.354-55 0s24.646-55 55-55z" style="display:block" transform="translate(1663.624 298.773)"/><path fill="#FDDB3D" d="M0-5c2.76 0 5 2.24 5 5S2.76 5 0 5s-5-2.24-5-5 2.24-5 5-5z" style="display:block" transform="translate(1608.77 591.672)"/><path fill="#FDDB3D" d="M0-33c18.213 0 33 14.787 33 33S18.213 33 0 33-33 18.213-33 0s14.787-33 33-33z" style="display:block" transform="translate(1718.41 658.988)"/><path fill="#FDDB3D" d="M0-17.5c9.658 0 17.5 7.842 17.5 17.5 0 9.658-7.842 17.5-17.5 17.5-9.658 0-17.5-7.842-17.5-17.5 0-9.658 7.842-17.5 17.5-17.5z" style="display:block" transform="matrix(.8 0 0 .8 1555.248 868.168)"/><path fill="#FDDB3D" d="M0-17.5c9.658 0 17.5 7.842 17.5 17.5 0 9.658-7.842 17.5-17.5 17.5-9.658 0-17.5-7.842-17.5-17.5 0-9.658 7.842-17.5 17.5-17.5z" style="display:block" transform="matrix(1.2 0 0 1.2 1173.715 940.792)"/><path fill="#FDDB3D" d="M0-9c4.967 0 9 4.033 9 9S4.967 9 0 9s-9-4.033-9-9 4.033-9 9-9z" style="display:block" transform="matrix(1.3 0 0 1.3 947.066 799.661)"/><path fill="#FDDB3D" d="M0-5c2.76 0 5 2.24 5 5S2.76 5 0 5s-5-2.24-5-5 2.24-5 5-5z" style="display:block" transform="matrix(1.2 0 0 1.2 1002.785 691.77)"/><path fill="#FDDB3D" d="M0-42.5c23.456 0 42.5 19.044 42.5 42.5S23.456 42.5 0 42.5-42.5 23.456-42.5 0-23.456-42.5 0-42.5z" style="display:block" transform="translate(876.862 522.291)"/><path fill="#FDDB3D" d="M0-17.5c9.658 0 17.5 7.842 17.5 17.5 0 9.658-7.842 17.5-17.5 17.5-9.658 0-17.5-7.842-17.5-17.5 0-9.658 7.842-17.5 17.5-17.5z" style="display:block" transform="matrix(.5 0 0 .5 952.046 315.742)"/><path fill="#FDDB3D" d="M0-20.5c11.314 0 20.5 9.186 20.5 20.5S11.314 20.5 0 20.5-20.5 11.314-20.5 0-11.314-20.5 0-20.5z" style="display:block" transform="translate(1028.1 106.73) scale(1.29268)"/><path fill="#FDDB3D" d="M0-55c30.354 0 55 24.646 55 55S30.354 55 0 55-55 30.354-55 0s24.646-55 55-55z" style="display:block" transform="matrix(.63636 0 0 .63636 519.065 190.11)"/><path fill="#FDDB3D" d="M0-17.5c9.658 0 17.5 7.842 17.5 17.5 0 9.658-7.842 17.5-17.5 17.5-9.658 0-17.5-7.842-17.5-17.5 0-9.658 7.842-17.5 17.5-17.5z" style="display:block" transform="matrix(.3 0 0 .3 1391.852 136.007)"/></g></svg>