<svg xmlns="http://www.w3.org/2000/svg" width="1920" height="1080" style="width:100%;height:100%;transform:translate3d(0,0,0)"><defs><clipPath id="a"><path d="M0 0h1920v1080H0z"/></clipPath><clipPath id="w"><path d="M0 0h20v20H0z"/></clipPath><clipPath id="v"><path d="M0 0h20v20H0z"/></clipPath><clipPath id="u"><path d="M0 0h1920v1080H0z"/></clipPath><clipPath id="t"><path d="M0 0h1920v1080H0z"/></clipPath><clipPath id="s"><path d="M0 0h1920v1080H0z"/></clipPath><clipPath id="l"><path d="M0 0h1920v1080H0z"/></clipPath><clipPath id="q"><path d="M0 0h1920v1080H0z"/></clipPath><clipPath id="r"><path d="M0 0h1920v1080H0z"/></clipPath><clipPath id="o"><path d="M0 0h1920v1080H0z"/></clipPath><clipPath id="p"><path d="M0 0h1920v1080H0z"/></clipPath><clipPath id="m"><path d="M0 0h1920v1080H0z"/></clipPath><clipPath id="n"><path d="M0 0h1920v1080H0z"/></clipPath><clipPath id="k"><path d="M0 0h1920v1080H0z"/></clipPath><clipPath id="h"><path d="M0 0h1920v1080H0z"/></clipPath><clipPath id="j"><path d="M0 0h1920v1080H0z"/></clipPath><clipPath id="i"><path d="M0 0h1920v1080H0z"/></clipPath><clipPath id="e"><path d="M0 0h1920v1080H0z"/></clipPath><clipPath id="g"><path d="M0 0h1920v1080H0z"/></clipPath><clipPath id="f"><path d="M0 0h1920v1080H0z"/></clipPath><clipPath id="d"><path d="M0 0h1920v1080H0z"/></clipPath><clipPath id="c"><path d="M0 0h1920v1080H0z"/></clipPath><clipPath id="b"><path d="M0 0h1920v1080H0z"/></clipPath></defs><g clip-path="url(#a)"><g clip-path="url(#b)" opacity=".5" style="display:block" transform="rotate(60 1556.891 848.37)"><path fill="#36B8FF" d="M0-10c5.522 0 10 4.477 10 10 0 5.522-4.478 10-10 10-5.523 0-10-4.478-10-10 0-5.523 4.477-10 10-10z" opacity="1" style="display:block" transform="translate(1541 849.045)"/><path fill="#36B8FF" d="M0-10c5.522 0 10 4.477 10 10 0 5.522-4.478 10-10 10-5.523 0-10-4.478-10-10 0-5.523 4.477-10 10-10z" opacity="1" style="display:block" transform="translate(1541.25 849.045)"/><path fill="#36B8FF" d="M-12.788-6.552s8.525-.03 12.789-.012c4.148.018 12.444-.085 12.444-.085l3.939.949.126 11.736-3.705.406L.153 6.367l-13.275.055-2.744-.969-.129-10.918 3.207-1.087z" opacity="1" style="display:block" transform="matrix(0 0 0 .8966 1541.126 849.136)"/></g><g clip-path="url(#c)" opacity=".5" style="display:block" transform="translate(15.75 -27.25)"><path fill="#36B8FF" d="M0-10c5.522 0 10 4.477 10 10 0 5.522-4.478 10-10 10-5.523 0-10-4.478-10-10 0-5.523 4.477-10 10-10z" opacity="1" style="display:block" transform="translate(1541 849.045)"/><path fill="#36B8FF" d="M0-10c5.522 0 10 4.477 10 10 0 5.522-4.478 10-10 10-5.523 0-10-4.478-10-10 0-5.523 4.477-10 10-10z" opacity="1" style="display:block" transform="translate(1541.25 849.045)"/><path fill="#36B8FF" d="M-12.788-6.552s8.525-.03 12.789-.012c4.148.018 12.444-.085 12.444-.085l3.939.949.126 11.736-3.705.406L.153 6.367l-13.275.055-2.744-.969-.129-10.918 3.207-1.087z" opacity="1" style="display:block" transform="matrix(0 0 0 .8966 1541.126 849.136)"/></g><g clip-path="url(#d)" opacity=".5" style="display:block" transform="translate(.25)"><path fill="#36B8FF" d="M0-10c5.522 0 10 4.477 10 10 0 5.522-4.478 10-10 10-5.523 0-10-4.478-10-10 0-5.523 4.477-10 10-10z" opacity="1" style="display:block" transform="translate(1541 849.045)"/><path fill="#36B8FF" d="M0-10c5.522 0 10 4.477 10 10 0 5.522-4.478 10-10 10-5.523 0-10-4.478-10-10 0-5.523 4.477-10 10-10z" opacity="1" style="display:block" transform="translate(1541.25 849.045)"/><path fill="#36B8FF" d="M-12.788-6.552s8.525-.03 12.789-.012c4.148.018 12.444-.085 12.444-.085l3.939.949.126 11.736-3.705.406L.153 6.367l-13.275.055-2.744-.969-.129-10.918 3.207-1.087z" opacity="1" style="display:block" transform="matrix(0 0 0 .8966 1541.126 849.136)"/></g><g clip-path="url(#e)" style="display:block" transform="translate(-60)"><g clip-path="url(#f)" opacity=".5" style="display:block" transform="rotate(-60 1212.403 1419.826)"><path fill="#36B8FF" d="M0-10c5.522 0 10 4.477 10 10 0 5.522-4.478 10-10 10-5.523 0-10-4.478-10-10 0-5.523 4.477-10 10-10z" opacity="1" style="display:block" transform="translate(1541 849.045)"/><path fill="#36B8FF" d="M0-10c5.522 0 10 4.477 10 10 0 5.522-4.478 10-10 10-5.523 0-10-4.478-10-10 0-5.523 4.477-10 10-10z" opacity="1" style="display:block" transform="translate(1541.25 849.045)"/><path fill="#36B8FF" d="M-12.788-6.552s8.525-.03 12.789-.012c4.148.018 12.444-.085 12.444-.085l3.939.949.126 11.736-3.705.406L.153 6.367l-13.275.055-2.744-.969-.129-10.918 3.207-1.087z" opacity="1" style="display:block" transform="matrix(0 0 0 .8966 1541.126 849.136)"/></g><g clip-path="url(#g)" opacity=".5" style="display:block" transform="rotate(60 1234.818 264.998)"><path fill="#36B8FF" d="M0-10c5.522 0 10 4.477 10 10 0 5.522-4.478 10-10 10-5.523 0-10-4.478-10-10 0-5.523 4.477-10 10-10z" opacity="1" style="display:block" transform="translate(1541 849.045)"/><path fill="#36B8FF" d="M0-10c5.522 0 10 4.477 10 10 0 5.522-4.478 10-10 10-5.523 0-10-4.478-10-10 0-5.523 4.477-10 10-10z" opacity="1" style="display:block" transform="translate(1541.25 849.045)"/><path fill="#36B8FF" d="M-12.788-6.552s8.525-.03 12.789-.012c4.148.018 12.444-.085 12.444-.085l3.939.949.126 11.736-3.705.406L.153 6.367l-13.275.055-2.744-.969-.129-10.918 3.207-1.087z" opacity="1" style="display:block" transform="matrix(0 0 0 .8966 1541.126 849.136)"/></g></g><g clip-path="url(#h)" style="display:block" transform="rotate(180 651.25 548)"><g clip-path="url(#i)" opacity=".5" style="display:block" transform="rotate(-60 1212.403 1419.826)"><path fill="#36B8FF" d="M0-10c5.522 0 10 4.477 10 10 0 5.522-4.478 10-10 10-5.523 0-10-4.478-10-10 0-5.523 4.477-10 10-10z" opacity="1" style="display:block" transform="translate(1541 849.045)"/><path fill="#36B8FF" d="M0-10c5.522 0 10 4.477 10 10 0 5.522-4.478 10-10 10-5.523 0-10-4.478-10-10 0-5.523 4.477-10 10-10z" opacity="1" style="display:block" transform="translate(1541.25 849.045)"/><path fill="#36B8FF" d="M-12.788-6.552s8.525-.03 12.789-.012c4.148.018 12.444-.085 12.444-.085l3.939.949.126 11.736-3.705.406L.153 6.367l-13.275.055-2.744-.969-.129-10.918 3.207-1.087z" opacity="1" style="display:block" transform="matrix(0 0 0 .8966 1541.126 849.136)"/></g><g clip-path="url(#j)" opacity=".5" style="display:block" transform="rotate(60 1234.818 264.998)"><path fill="#36B8FF" d="M0-10c5.522 0 10 4.477 10 10 0 5.522-4.478 10-10 10-5.523 0-10-4.478-10-10 0-5.523 4.477-10 10-10z" opacity="1" style="display:block" transform="translate(1541 849.045)"/><path fill="#36B8FF" d="M0-10c5.522 0 10 4.477 10 10 0 5.522-4.478 10-10 10-5.523 0-10-4.478-10-10 0-5.523 4.477-10 10-10z" opacity="1" style="display:block" transform="translate(1541.25 849.045)"/><path fill="#36B8FF" d="M-12.788-6.552s8.525-.03 12.789-.012c4.148.018 12.444-.085 12.444-.085l3.939.949.126 11.736-3.705.406L.153 6.367l-13.275.055-2.744-.969-.129-10.918 3.207-1.087z" opacity="1" style="display:block" transform="matrix(0 0 0 .8966 1541.126 849.136)"/></g></g><g clip-path="url(#k)" opacity=".5" style="display:block" transform="rotate(90 1903.25 663.75)"><path fill="#36B8FF" d="M0-10c5.522 0 10 4.477 10 10 0 5.522-4.478 10-10 10-5.523 0-10-4.478-10-10 0-5.523 4.477-10 10-10z" opacity="1" style="display:block" transform="translate(1541 849.045)"/><path fill="#36B8FF" d="M0-10c5.522 0 10 4.477 10 10 0 5.522-4.478 10-10 10-5.523 0-10-4.478-10-10 0-5.523 4.477-10 10-10z" opacity="1" style="display:block" transform="translate(1541.25 849.045)"/><path fill="#36B8FF" d="M-12.788-6.552s8.525-.03 12.789-.012c4.148.018 12.444-.085 12.444-.085l3.939.949.126 11.736-3.705.406L.153 6.367l-13.275.055-2.744-.969-.129-10.918 3.207-1.087z" opacity="1" style="display:block" transform="matrix(0 0 0 .8966 1541.126 849.136)"/></g><g clip-path="url(#l)" style="display:block"><g clip-path="url(#m)" opacity=".5" style="display:block" transform="rotate(90 1912.75 481.75)"><g clip-path="url(#n)" opacity="1" style="display:block"><path fill="#36B8FF" d="M0-10c5.522 0 10 4.477 10 10 0 5.522-4.478 10-10 10-5.523 0-10-4.478-10-10 0-5.523 4.477-10 10-10z" opacity="1" style="display:block" transform="translate(1531.686 849.045)"/><path fill="#36B8FF" d="M0-10c5.522 0 10 4.477 10 10 0 5.522-4.478 10-10 10-5.523 0-10-4.478-10-10 0-5.523 4.477-10 10-10z" opacity="1" style="display:block" transform="translate(1550.87 849.045)"/><path fill="#36B8FF" d="M-9.861-6.246c.902.56 6.47 1.547 9.862 1.557 3.272.009 8.669-.907 9.54-1.415.376-.219 3.124-.684 3.124-.684l.067 12.528s-2.598.494-2.958.28c-.881-.524-6.8-1.412-9.693-1.436-2.746-.023-9.217 1.406-10.228 1.771-.932.332-2.245-.487-2.245-.487l-.068-12.823s2.275.508 2.599.709z" opacity="1" style="display:block" transform="matrix(1.17317 0 0 1.1889 1541.126 849.136)"/></g></g><g clip-path="url(#o)" opacity=".5" style="display:block" transform="rotate(90 1882 512.5)"><g clip-path="url(#p)" opacity="1" style="display:block"><path fill="#36B8FF" d="M0-10c5.522 0 10 4.477 10 10 0 5.522-4.478 10-10 10-5.523 0-10-4.478-10-10 0-5.523 4.477-10 10-10z" opacity="1" style="display:block" transform="translate(1531.686 849.045)"/><path fill="#36B8FF" d="M0-10c5.522 0 10 4.477 10 10 0 5.522-4.478 10-10 10-5.523 0-10-4.478-10-10 0-5.523 4.477-10 10-10z" opacity="1" style="display:block" transform="translate(1550.87 849.045)"/><path fill="#36B8FF" d="M-9.861-6.246c.902.56 6.47 1.547 9.862 1.557 3.272.009 8.669-.907 9.54-1.415.376-.219 3.124-.684 3.124-.684l.067 12.528s-2.598.494-2.958.28c-.881-.524-6.8-1.412-9.693-1.436-2.746-.023-9.217 1.406-10.228 1.771-.932.332-2.245-.487-2.245-.487l-.068-12.823s2.275.508 2.599.709z" opacity="1" style="display:block" transform="matrix(1.17317 0 0 1.1889 1541.126 849.136)"/></g></g><g clip-path="url(#q)" opacity=".5" style="display:block" transform="rotate(90 1897.25 497.25)"><g clip-path="url(#r)" opacity="1" style="display:block"><path fill="#36B8FF" d="M0-10c5.522 0 10 4.477 10 10 0 5.522-4.478 10-10 10-5.523 0-10-4.478-10-10 0-5.523 4.477-10 10-10z" opacity="1" style="display:block" transform="translate(1531.686 849.045)"/><path fill="#36B8FF" d="M0-10c5.522 0 10 4.477 10 10 0 5.522-4.478 10-10 10-5.523 0-10-4.478-10-10 0-5.523 4.477-10 10-10z" opacity="1" style="display:block" transform="translate(1550.87 849.045)"/><path fill="#36B8FF" d="M-9.861-6.246c.902.56 6.47 1.547 9.862 1.557 3.272.009 8.669-.907 9.54-1.415.376-.219 3.124-.684 3.124-.684l.067 12.528s-2.598.494-2.958.28c-.881-.524-6.8-1.412-9.693-1.436-2.746-.023-9.217 1.406-10.228 1.771-.932.332-2.245-.487-2.245-.487l-.068-12.823s2.275.508 2.599.709z" opacity="1" style="display:block" transform="matrix(1.17317 0 0 1.1889 1541.126 849.136)"/></g></g></g><g clip-path="url(#s)" opacity=".5" style="display:block" transform="rotate(-40 417.14 1240.227)"><path fill="#36B8FF" d="M0-10c5.522 0 10 4.477 10 10 0 5.522-4.478 10-10 10-5.523 0-10-4.478-10-10 0-5.523 4.477-10 10-10z" opacity="1" style="display:block" transform="translate(1541 849.045)"/><path fill="#36B8FF" d="M0-10c5.522 0 10 4.477 10 10 0 5.522-4.478 10-10 10-5.523 0-10-4.478-10-10 0-5.523 4.477-10 10-10z" opacity="1" style="display:block" transform="translate(1541.25 849.045)"/><path fill="#36B8FF" d="M-12.788-6.552s8.525-.03 12.789-.012c4.148.018 12.444-.085 12.444-.085l3.939.949.126 11.736-3.705.406L.153 6.367l-13.275.055-2.744-.969-.129-10.918 3.207-1.087z" opacity="1" style="display:block" transform="matrix(0 0 0 .8966 1541.126 849.136)"/></g><g clip-path="url(#t)" opacity=".5" style="display:block" transform="translate(-567.5 -205.75)"><path fill="#36B8FF" d="M0-10c5.522 0 10 4.477 10 10 0 5.522-4.478 10-10 10-5.523 0-10-4.478-10-10 0-5.523 4.477-10 10-10z" opacity="1" style="display:block" transform="translate(1541 849.045)"/><path fill="#36B8FF" d="M0-10c5.522 0 10 4.477 10 10 0 5.522-4.478 10-10 10-5.523 0-10-4.478-10-10 0-5.523 4.477-10 10-10z" opacity="1" style="display:block" transform="translate(1541.25 849.045)"/><path fill="#36B8FF" d="M-12.788-6.552s8.525-.03 12.789-.012c4.148.018 12.444-.085 12.444-.085l3.939.949.126 11.736-3.705.406L.153 6.367l-13.275.055-2.744-.969-.129-10.918 3.207-1.087z" opacity="1" style="display:block" transform="matrix(0 0 0 .8966 1541.126 849.136)"/></g><g clip-path="url(#u)" opacity=".5" style="display:block" transform="translate(-466.5 131.25)"><path fill="#36B8FF" d="M0-10c5.522 0 10 4.477 10 10 0 5.522-4.478 10-10 10-5.523 0-10-4.478-10-10 0-5.523 4.477-10 10-10z" opacity="1" style="display:block" transform="translate(1541 849.045)"/><path fill="#36B8FF" d="M0-10c5.522 0 10 4.477 10 10 0 5.522-4.478 10-10 10-5.523 0-10-4.478-10-10 0-5.523 4.477-10 10-10z" opacity="1" style="display:block" transform="translate(1541.25 849.045)"/><path fill="#36B8FF" d="M-12.788-6.552s8.525-.03 12.789-.012c4.148.018 12.444-.085 12.444-.085l3.939.949.126 11.736-3.705.406L.153 6.367l-13.275.055-2.744-.969-.129-10.918 3.207-1.087z" opacity="1" style="display:block" transform="matrix(0 0 0 .8966 1541.126 849.136)"/></g><g clip-path="url(#v)" opacity=".5" style="display:block" transform="translate(1658 670)"><path fill="#36B8FF" d="M0-10c5.522 0 10 4.477 10 10 0 5.522-4.478 10-10 10-5.523 0-10-4.478-10-10 0-5.523 4.477-10 10-10z" opacity="1" style="display:block" transform="translate(10 10)"/></g><g clip-path="url(#w)" opacity=".5" style="display:block" transform="translate(960 101.681)"><path fill="#36B8FF" d="M0-10c5.522 0 10 4.477 10 10 0 5.522-4.478 10-10 10-5.523 0-10-4.478-10-10 0-5.523 4.477-10 10-10z" opacity="1" style="display:block" transform="translate(10 10)"/></g></g></svg>