<svg xmlns="http://www.w3.org/2000/svg" width="491" height="311" style="width:100%;height:100%;transform:translate3d(0,0,0)"><defs><clipPath id="a"><path d="M0 0h491v311H0z"/></clipPath><clipPath id="b"><path d="M0 0h491v311H0z"/></clipPath></defs><g clip-path="url(#a)"><g clip-path="url(#b)" style="display:block" transform="translate(0 8.479)"><g opacity=".5" style="display:block"><g opacity="1"><path fill="#EA7E48" d="M184.998 138.932c-2.124-.205-4.106-.81-5.724-1.749l-.721-.398c-1.35-.74-2.879-1.576-3.678-3.1l-.115-.22c-.114-.222-.257-.498-.329-.587 0 0-.105-.02-.253-.036-1.755-.19-2.29-.615-3.211-1.982-.948-1.396-1.91-2.28-3.547-3.266-.447-.19-.903-.372-1.34-.847a2.524 2.524 0 0 1-.168-.21c-.04.007-.078.013-.12.016a7.043 7.043 0 0 1-.381.016 6.883 6.883 0 0 1-.956-.102c-.128-.022-.248-.044-.362-.054-2.743-.26-4.174-2.075-5.315-3.997l-.236-.41c-.324-.565-.502-.88-.928-1.198l-.323-.24c-.54-.397-1.15-.847-1.68-1.48a9.276 9.276 0 0 1-.739-1.05c-.224-.354-.418-.663-.65-.872-.156-.139-.295-.252-.42-.353-.48-.393-.978-.797-1.385-1.752-.432-1.006-.61-2.06-.786-3.079-.188-1.096-.363-2.135-.827-2.827-.662-.996-1.233-1.851-1.146-3.404.075-1.407.75-1.93 1.376-2.31.164-.097.282-.17.417-.305.134-.135.158-.253-.067-1.116-.236-.907-.561-2.145.234-3.432.75-1.214 2.316-3.731 5.343-3.687.169.002.344.013.525.033.923.099 1.652.441 2.293.743.338.157.675.323 1.05.423l.131.033c.062-.028.129-.055.202-.085.099-.04.208-.112.321-.18.42-.253.997-.597 1.748-.586 1.131.02 3.149 1.187 6.005 3.467.334.11.652.171.895.175a.666.666 0 0 0 .242-.028c.295-.14.617-.407.96-.69.53-.438 1.132-.935 1.93-1.25.856-.336 1.678-.495 2.51-.483.362.006.72.044 1.088.108.15.026.344.075.55.128.148.037.304.086.43.1.135-.14.455-.299.902-.367.232-.033.454-.047.66-.044.43.006.78.081 1.057.14.172.034.306.063.404.064 1.261-.312 1.862-.416 3.045-.44.437-.01.858-.258 1.506-.662.697-.437 1.49-.93 2.549-1.093 1.162-.182 2.318-.172 3.434-.162.426.004.666-.012.916-.026.345-.02.7-.04 1.05-.035.742.01 1.334.126 1.864.365 1.452.645 2.2 1.865 2.86 2.943.325.528.631 1.028.973 1.373.785.804 2.058 1.254 3.403 1.733 2.183.775 4.657 1.655 5.477 4.328.246.802.686 1.674 1.156 2.594.627 1.236 1.277 2.516 1.558 3.848.262 1.262.199 2.464.136 3.626-.072 1.39-.136 2.593.361 3.634 1.1 2.285-1.122 6.626-2.192 7.968-1.126 1.413-2.882 2.056-4.297 2.572-.279.101-.55.203-.808.306-1.288.511-1.941 1.809-2.697 3.315-.787 1.562-1.677 3.334-3.504 4.463-1.592.983-3.62 1.254-5.407 1.495l-1.034.144c-1.048.164-2.14.236-3.332.218-.945-.013-1.9-.082-2.883-.177z"/><path fill="none" stroke="#A84420" stroke-width="3" d="M184.998 138.932c-2.124-.205-4.106-.81-5.724-1.749l-.721-.398c-1.35-.74-2.879-1.576-3.678-3.1l-.115-.22c-.114-.222-.257-.498-.329-.587 0 0-.105-.02-.253-.036-1.755-.19-2.29-.615-3.211-1.982-.948-1.396-1.91-2.28-3.547-3.266-.447-.19-.903-.372-1.34-.847a2.524 2.524 0 0 1-.168-.21c-.04.007-.078.013-.12.016a7.043 7.043 0 0 1-.381.016 6.883 6.883 0 0 1-.956-.102c-.128-.022-.248-.044-.362-.054-2.743-.26-4.174-2.075-5.315-3.997l-.236-.41c-.324-.565-.502-.88-.928-1.198l-.323-.24c-.54-.397-1.15-.847-1.68-1.48a9.276 9.276 0 0 1-.739-1.05c-.224-.354-.418-.663-.65-.872-.156-.139-.295-.252-.42-.353-.48-.393-.978-.797-1.385-1.752-.432-1.006-.61-2.06-.786-3.079-.188-1.096-.363-2.135-.827-2.827-.662-.996-1.233-1.851-1.146-3.404.075-1.407.75-1.93 1.376-2.31.164-.097.282-.17.417-.305.134-.135.158-.253-.067-1.116-.236-.907-.561-2.145.234-3.432.75-1.214 2.316-3.731 5.343-3.687.169.002.344.013.525.033.923.099 1.652.441 2.293.743.338.157.675.323 1.05.423l.131.033c.062-.028.129-.055.202-.085.099-.04.208-.112.321-.18.42-.253.997-.597 1.748-.586 1.131.02 3.149 1.187 6.005 3.467.334.11.652.171.895.175a.666.666 0 0 0 .242-.028c.295-.14.617-.407.96-.69.53-.438 1.132-.935 1.93-1.25.856-.336 1.678-.495 2.51-.483.362.006.72.044 1.088.108.15.026.344.075.55.128.148.037.304.086.43.1.135-.14.455-.299.902-.367.232-.033.454-.047.66-.044.43.006.78.081 1.057.14.172.034.306.063.404.064 1.261-.312 1.862-.416 3.045-.44.437-.01.858-.258 1.506-.662.697-.437 1.49-.93 2.549-1.093 1.162-.182 2.318-.172 3.434-.162.426.004.666-.012.916-.026.345-.02.7-.04 1.05-.035.742.01 1.334.126 1.864.365 1.452.645 2.2 1.865 2.86 2.943.325.528.631 1.028.973 1.373.785.804 2.058 1.254 3.403 1.733 2.183.775 4.657 1.655 5.477 4.328.246.802.686 1.674 1.156 2.594.627 1.236 1.277 2.516 1.558 3.848.262 1.262.199 2.464.136 3.626-.072 1.39-.136 2.593.361 3.634 1.1 2.285-1.122 6.626-2.192 7.968-1.126 1.413-2.882 2.056-4.297 2.572-.279.101-.55.203-.808.306-1.288.511-1.941 1.809-2.697 3.315-.787 1.562-1.677 3.334-3.504 4.463-1.592.983-3.62 1.254-5.407 1.495l-1.034.144c-1.048.164-2.14.236-3.332.218-.945-.013-1.9-.082-2.883-.177z"/></g><path fill="#D23E0A" d="M193.071 118.997c1.011-.479 2.12-1.692 2.07-3.024-.06-1.674-1.756-1.237-2.815-2.347-2.416-2.54-1.4-9.268 2.16-10.214 1.442-.375 2.668.5 3.987.283 1.326-.219.643-.625 1.401-1.498.562-.647 1.085-.673 1.634-1.2.482-.022.992.054 1.469.217-1.82-.767-3.95-1.263-5.289-2.68-.5-.53-.877-1.207-1.272-1.871-.875-.794-1.664-1.59-2.514-1.732-.782-.128-3.817-.334-4.517.031-1.782.926-.117 2.272-.067 3.503.026.686-1.013 2.503-1.83 2.706-1.172.292-3.256-1.367-4.556-.755-.821.383-1.811 2.868-1.228 3.682.574.79 2.756.434 3.773 1.284 1.125.935 1.31 2.117 1.379 3.533.097 1.929.727 4.028.547 5.94 3.312-.66 1.31 6.213 5.668 4.142z" opacity="1"/><path fill="#E4BC88" d="m204.129 101.866.044-.07a10.062 10.062 0 0 0-.554-.294c.184.11.356.229.51.364z" opacity="1"/><path fill="#D23E0A" d="M160.84 117.346c-.712-1.068-.886-1.685-.639-2.801.145-.654.176-1.693.274-1.638 1.114-.158 2.455.277 3.548.453.09 1.047.492 3.174 1.105 4.007.81 1.088 2.168.84 3.555 1.049-.104.669-.32 1.268-.365 1.975-.898.189-3.82-.4-2.08 1.36-.966.512-2.302.773-3.324.962-.272-2.141-.853-3.553-2.073-5.367zm29.676 20.55c1.867-.297 4.264-.449 5.882-1.47 2.062-1.31 2.718-3.8 3.899-5.75-.14-.143-.168-.273-.394-.312-.318 1.846-1.409 2.043-2.998 2.066-2.126.029-3.072-.61-3.74 1.506-1.772.539-3.809.837-5.72 1.38.72-1.97-1.66-3.149-3.24-3.533-.028-1.398 2.373-2.695 1.675-4.25-.706-1.581-2.474-.509-3.479-.494-1.036.016-2.427-.809-2.923-1.875-.786-1.69.981-3.566.05-5.21-.734.366-3.506.316-4.287-.155-.886-.53-1.704-3.002-1.068-3.873.532-.731 3.662-.854 4.634-1.129 1.437-.405 2.896-.937 4.41-.7.724-1.124-.425-3.274-1.69-3.433-.953-.125-2.119 1.133-2.935 1.417-5.18 1.797-2.21-4.834-5.437-5.45-1.939-.37-2.807 1.491-3.044 2.872-.323 1.863-.957 1.762-2.907 1.454-2.76-.434-6.27-5.04-1.96-6.178 1.014-.268 1.917.317 2.78-.594.623-.658.434-1.612.75-2.393-.225-.024-.53-.138-.752-.127.68-1.044 1.864-.658 2.952-.944 1.28-.33 2.271-1.385 3.572-1.581.439-.896.237-1.439-.27-1.775a6.11 6.11 0 0 0-.902.28c-1.077.436-1.807 1.473-2.792 1.954-.738.358-1.79.124-2.57-.182 0 0-4.064-3.349-5.266-3.378-.483-.007-.971.46-1.478.673-.719.3-.45.35-1.305.12-1.104-.3-1.954-1.028-3.12-1.159-2.168-.241-3.422 1.394-4.421 3.05-1.026 1.697 1.035 3.468-.37 4.927-.766.8-1.323.524-1.39 1.764-.065 1.162.323 1.72.916 2.632 1.112 1.712.895 4.283 1.732 6.292.359.868.728.99 1.45 1.65.652.602.945 1.409 1.533 2.127.511.624 1.134 1.046 1.757 1.523.8.612 1.058 1.24 1.541 2.079 1.015 1.752 2.116 3.172 4.166 3.367.43.04.961.188 1.39.145.393-.04.727-.44 1.11-.295.576.219.154.632.46.976.345.38.643.374 1.023.607 1.708 1.053 2.869 2.074 4.009 3.797.729 1.104.88 1.232 2.131 1.373 1.166.13 1.316.593 1.861 1.658.719 1.412 2.4 2.147 3.84 2.997 1.523.898 3.303 1.408 5.106 1.589 2.01.197 3.884.278 5.829-.035z" opacity="1"/></g><g opacity=".6" style="display:block"><path fill="#EA7E48" d="M385.36 165.905c-2.2-.108-4.058-1.99-4.575-4.68-.003.002-.004.002-.01.002-.068-.001-.4-.194-.624-.324a10.14 10.14 0 0 1-.75-.468c-.632-.404-2.055-1.321-2.221-3.185-.035-.428-.162-.883-.28-1.345-.192-.73-.403-1.556-.408-2.397-.003-.796.171-1.506.322-2.128.153-.621.284-1.16.19-1.559-.459-1.958 1.705-4.42 2.15-4.822.88-.797 1.985-.996 2.794-1.14l.408-.078c.36-.077.679-.492 1.169-1.163.584-.797 1.31-1.788 2.545-2.295.81-.332 1.66-.365 2.309-.355.294.004 1.375.058 1.375.058 1.233.037 2.308.317 3.284.613a8.027 8.027 0 0 1 3.049 1.662c.712.497 1.138 1.183 1.481 1.745.167.269.339.55.47.68.54.45 1.035 1.166 1.475 1.8.178.262.439.638.595.814 2.074.698 3.328 1.873 3.735 3.503 1.823 5.124-.394 11.205-5.205 13.99-.499.3-1.054.45-1.632.442-1.061-.016-1.92-.564-2.609-1.01l-.253-.159c-.289.362-.698.8-1.33 1.029-.912.292-1.719.349-2.5.403-.408.028-.819.054-1.238.124-1.002.146-1.977.29-3.037.275-.226-.004-.45-.014-.68-.032z" opacity="1"/><path fill="none" stroke="#A84420" stroke-width="2" d="M385.36 165.905c-2.2-.108-4.058-1.99-4.575-4.68-.003.002-.004.002-.01.002-.068-.001-.4-.194-.624-.324a10.14 10.14 0 0 1-.75-.468c-.632-.404-2.055-1.321-2.221-3.185-.035-.428-.162-.883-.28-1.345-.192-.73-.404-1.556-.409-2.397-.003-.796.171-1.506.322-2.129.153-.62.284-1.159.19-1.558-.459-1.958 1.705-4.42 2.15-4.822.88-.797 1.986-.996 2.795-1.14l.407-.078c.36-.077.68-.492 1.17-1.163.584-.797 1.31-1.788 2.545-2.295.81-.332 1.66-.365 2.308-.355.294.004 1.376.058 1.376.058 1.233.037 2.308.317 3.284.613a8.027 8.027 0 0 1 3.049 1.662c.712.497 1.137 1.183 1.48 1.745.167.269.34.55.472.68.54.45 1.034 1.166 1.474 1.8.178.262.439.638.595.814 2.074.698 3.328 1.873 3.735 3.503 1.823 5.124-.395 11.205-5.206 13.99-.499.3-1.053.45-1.631.442-1.061-.016-1.92-.564-2.609-1.01l-.254-.159c-.289.362-.697.8-1.33 1.029-.91.292-1.718.349-2.5.403-.407.028-.818.054-1.237.124-1.002.146-1.978.29-3.038.275a10.33 10.33 0 0 1-.679-.032z" opacity="1"/><path fill="#C7481C" d="M383.77 162.914c.679.543 1.746 1.46 2.538.766.668-.553.18-1.714.74-2.474.66-.814 1.53.212 2.293.186.603-.068 1.258-1.139.996-1.387-.94-.91-1.309-1.977-1.396-3.09-.085-1.11.116-2.264.324-3.367-1.606.093.055-3.175-2.25-2.499-.624.322-1.626.868-1.229 1.494.453.727 1.109 1.349 1.259 2.238.122 1.559-.282 3.463-1.967 4.051-1.005.286-1.827-.893-2.529-.513-.546.425-1.338 1.114-2.137.702" opacity="1"/><path fill="#C7481C" d="M401.459 155.91c-.412.463-1.127.14-1.642 0 .323-.97.437-1.904.253-2.55-.193-.645-.679-1.02-1.562-.867.38-1.075.996-1.5 1.833-1.246.217-1.187 1.266-.956 2.18-1.072-.31 1.098-.318 1.894-.104 2.989.311 1.02-.422 2.18-.958 2.746zm-16.58-14.505c-.427.541-.8 1.14-1.236 1.654.062.1.064.183.183.228.377-1.05 1-1.044 1.883-.882.652.174 1.29.576 1.708.111 1.056-1.05 2.65-.35 3.87-.658-.026.09-.168.243-.19.337.264 1.366 2.09 2.244.476 3.405-.397.48-.646.942.075 1.219.46.194 1.134.233 1.689.406.55.175.98.485.951 1.218-.058.869-1.288 1.87-.586 2.387.609.49 2.436.074 1.927 1.495-.561 1.601-2.35 1.932-3.862 1.953-.95-.002-1.755.83-1.098 1.828a.695.695 0 0 0 .953.3c.65-.288 1.785-1.614 2.304-.462.335.798-.47 1.634-.137 2.433.36.708 1.213.379 1.568-.2.242-.514.453-1.168.764-1.673.313-.506.728-.872 1.37-.82.89.184 1.32 1.307 1.058 2.215-.348.873-1.177 1.303-1.916 1.78-.738.474-1.384.988-1.353 2.033.086.024.112-.064.199-.04-.055.182-.02.387-.24.52-.598.26-1.347.567-1.9 1.015-.552.442-.905 1.024-.713 1.826.407-.27.688-.674.993-1.035.366-.417.928-1.031 1.218-.741 1.026 1.018 2.166 1.972 3.637 1.446 3.349-1.125 4.133-4.83 5.169-7.875.22-.657.435-1.291.665-1.864.449-1.242.01-2.664-.825-3.811-.334-.47-.724-.915-1.15-1.334-.85-.842-1.84-1.597-2.77-2.284-.618-.49-.955-1.29-1.402-2.025-.058-.117-.46-.046-.518-.166-1.383-2.409-3.309-4.898-6.174-5.052a9.767 9.767 0 0 0-1.616-.23c-1.703-.085-3.95-.495-4.974 1.343z" opacity="1"/></g><g opacity=".7" style="display:block"><path fill="#6F4A4A" d="M386.991 119.04c-2.42 3.442-14.338 16.247-32.871 3.277-17.789-12.448-11.282-27.45-8.116-31.956 3.166-4.508 14.649-1.367 25.965 6.55 11.316 7.92 18.186 17.62 15.022 22.128z" opacity="1"/><path fill="none" stroke="#442323" stroke-linecap="round" stroke-linejoin="round" stroke-width="3" d="M386.991 119.04c-2.42 3.442-14.338 16.247-32.871 3.277-17.789-12.448-11.282-27.45-8.116-31.956 3.166-4.508 14.649-1.368 25.965 6.549 11.316 7.92 18.186 17.622 15.022 22.13z" opacity="1"/><path fill="#6F4A4A" d="M423.146 103.23c-5.327 7.612-30.797 36.449-64.354 12.876-32.211-22.628-16.822-55.048-9.854-65.01 6.971-9.96 28.662-5.545 49.153 8.854 20.49 14.393 32.025 33.319 25.055 43.28z" opacity="1"/><path fill="none" stroke="#442323" stroke-linecap="round" stroke-linejoin="round" stroke-width="3" d="M423.146 103.23c-5.327 7.612-30.797 36.449-64.354 12.876-32.211-22.628-16.822-55.048-9.854-65.01 6.971-9.96 28.662-5.545 49.153 8.854 20.49 14.393 32.025 33.319 25.055 43.28z" opacity="1"/><path fill="#6F4A4A" d="M423.304 102.85c-6.911 9.822-28.581 5.354-49.107-8.983-20.52-14.333-32.122-33.108-25.21-42.93 6.913-9.822 28.586-5.355 49.108 8.983 20.521 14.333 32.121 33.108 25.21 42.93z" opacity="1"/><path fill="none" stroke="#442323" stroke-linecap="round" stroke-linejoin="round" stroke-width="2.171" d="M423.305 102.85c-6.911 9.822-28.581 5.354-49.107-8.982-20.52-14.333-32.122-33.11-25.21-42.932 6.913-9.821 28.586-5.354 49.108 8.984 20.521 14.333 32.121 33.108 25.21 42.93z" opacity="1"/><path fill="#FFE185" d="M414.383 106.028c-4.553 6.529-22.528.957-40.607-11.783-18.081-12.739-29.42-27.821-24.864-34.349 4.552-6.526 19.886-7.172 42.646 8.862 22.759 16.039 27.382 30.744 22.825 37.27z" opacity="1"/><path fill="none" stroke="#B16B4D" stroke-linecap="round" stroke-linejoin="round" stroke-width="1.737" d="M349.146 67.795s13.546-12.189 37.678-1.496M352.351 74.4s12.995-12.723 43.506-1.785M356.498 79.47s22.561-10.934 49.498 2.247" opacity="1"/><path fill="none" stroke="#B16B4D" stroke-linecap="round" stroke-linejoin="round" stroke-width="1.737" d="M367.367 76.232s5.395 7.121 4.945 17.064M376.537 75.242s5.763 13.247 1.889 22.164M384.4 76.488s6.908 12.05 2.499 25.223" opacity="1"/><path fill="none" stroke="#B16B4D" stroke-linecap="round" stroke-linejoin="round" stroke-width="1.737" d="M393.992 77.234s.642 6.236-5.668 13.647M402.173 79.99s.054 8.55-12.908 18.352M392.397 104.564s10.215-3.083 15.803-20.358M400.618 99.476s2.47 2.306 3.246 9.074" opacity="1"/><path fill="none" stroke="#B16B4D" stroke-linecap="round" stroke-linejoin="round" stroke-width="1.737" d="M405.261 92.878s5.357 8.967 5.56 15.652" opacity="1"/><path fill="none" stroke="#442323" stroke-linecap="round" stroke-linejoin="round" stroke-width="3" d="M414.383 106.028c-4.553 6.529-22.528.957-40.607-11.783-18.081-12.739-29.42-27.821-24.864-34.349 4.552-6.526 19.886-7.172 42.646 8.862 22.759 16.039 27.382 30.744 22.825 37.27z" opacity="1"/><g opacity="1"><path fill="#A1CC44" d="M390.884 73.126c.06 2.531-4.181 3.504-9.43 3.684-5.259.178-9.532-.504-9.593-3.035-.06-2.53 4.181-3.505 9.434-3.685 5.256-.179 9.53.505 9.59 3.036z"/><path fill="none" stroke="#8BA825" stroke-linecap="round" stroke-linejoin="round" stroke-width="2" d="M390.884 73.126c.06 2.531-4.181 3.504-9.43 3.684-5.259.178-9.532-.504-9.593-3.035-.06-2.53 4.181-3.505 9.434-3.685 5.256-.179 9.53.505 9.59 3.036z"/></g><g opacity="1"><path fill="#DF523A" d="M398.372 83.047c-.599 2.342-5.015 1.956-10.213.533-5.204-1.426-9.223-3.35-8.628-5.696.6-2.345 5.011-1.957 10.216-.533 5.2 1.426 9.22 3.349 8.625 5.696z"/><path fill="none" stroke="#9F1C17" stroke-linecap="round" stroke-linejoin="round" stroke-width="2" d="M398.372 83.047c-.599 2.342-5.015 1.956-10.213.533-5.204-1.426-9.223-3.35-8.628-5.696.6-2.345 5.011-1.957 10.216-.533 5.2 1.426 9.22 3.349 8.625 5.696z"/></g></g><g style="display:block"><path fill="#F4A96C" d="M192.044 74.759c-8.037-1.988-10.03-3.693-10.504-4.533-1.028-1.782-4.355-7.873-3.559-10.838.718-2.657 5.378-6.43 25.79-16.21 15.478-7.412 25.475-10.81 30.568-10.381.409.034.785.092 1.133.172 5.072 1.17 10.677 10.812 10.698 14.36.025 4.424-13.448 17.117-26.062 23.098-9.575 4.543-15.355 6.045-21.32 5.544-1.929-.162-4.007-.537-6.744-1.212z"/><path fill="none" stroke="#9C4129" stroke-width="3" d="M192.044 74.759c-8.037-1.988-10.03-3.693-10.504-4.533-1.028-1.782-4.355-7.873-3.559-10.838.718-2.657 5.378-6.43 25.79-16.21 15.478-7.412 25.475-10.81 30.568-10.381.409.034.785.092 1.133.172 5.072 1.17 10.677 10.812 10.698 14.36.025 4.424-13.448 17.117-26.062 23.098-9.575 4.543-15.355 6.045-21.32 5.544-1.929-.162-4.007-.537-6.744-1.212z"/><path fill="#FFD593" d="M224.82 38.07s-5.404 1.335-20.08 8.297c-14.676 6.964-15.68 8.42-15.68 8.42-3.487 1.824-1.78 6.031 1.171 6.335 4.386.453 7.52-2.143 11.584-.073 2.676 1.362 3.501 2.174 7.467.504 3.047-1.284 4.261-3.262 6.856-5.302 4.54-3.564 12.131-4.033 15.254-9.186 3.13-5.166-1.5-9.105-6.572-8.994z"/><path fill="#C45539" d="M244.782 47.18c.402-1.98-1.063-6.022-4.014-8.827.726 1.882 1.032 3.466.764 5.156-5.943 9.21-10.708 5.484-23.758 16.244-5.32 3.816-10.281 5.334-14.089 6.42-3.337.992-5.743.635-8.144.007-1.363-.249-2.466-1.24-4.346-1.87-1.878-.62-3.657-.452-5.471-.57-2.952-.177-5.428-.78-6.268-4.375l-.218.043c-.157.249-.27.483-.33.699-.705 2.63 3.424 9.797 3.424 9.797s.926 1.702 9.346 3.845c8.879 2.146 14.038 2.096 27.341-4.283 13.414-6.392 25.377-18.848 25.763-22.286z"/><path fill="#FFF" d="M195.42 54.11c-.027-.888-.815-1.709-1.716-1.627-1.947.17-3.286 1.666-4.278 3.263-.485.783-.08 1.877.673 2.29.838.464 1.765.087 2.249-.69.25-.406.536-.755.893-1.117.143-.143.212-.176.43-.314-.196.124.488-.078.147-.05.902-.076 1.633-.798 1.602-1.754zM188.957 59.096l-.158.006c-1.226.051-1.164 2.025.06 1.976l.162-.009c1.225-.046 1.16-2.022-.064-1.973zM225.594 41.101l-.16.005c-1.225.053-1.163 2.028.06 1.977l.16-.009c1.228-.047 1.165-2.022-.06-1.973zM222.397 47.515c-1.848 3.408-5.409 5.475-8.748 7.167-2.471 1.254-1.275 4.435 1.162 3.189 4.484-2.291 8.474-5.153 10.997-9.652 1.347-2.4-2.128-3.07-3.411-.704z"/></g><g style="display:block"><path fill="#FFF" d="M457.94 250.504c6.528-4.29 10.771-10.91 9.098-19.804-1.974-10.444-9.274-18.241-13.216-27.76-2.935-7.087-6.277-14.489-14.353-16.776-9.98-2.824-18.29 6.87-22.956 14.293-6.689 10.634-10.339 27.796-4.4 39.341 6.023 11.706 20.76 18.324 33.269 15.73 4.478-.93 8.882-2.606 12.557-5.024z"/><path fill="none" stroke="#D5C6C6" stroke-width="3" d="M457.94 250.504c6.528-4.29 10.77-10.908 9.097-19.803-1.974-10.444-9.273-18.241-13.215-27.76-2.935-7.087-6.277-14.49-14.353-16.777-9.98-2.824-18.291 6.869-22.957 14.293-6.689 10.634-10.339 27.797-4.4 39.342 6.023 11.706 20.761 18.323 33.27 15.729 4.478-.93 8.882-2.606 12.557-5.024z"/><path fill="#FFD769" d="M440.983 213.204c5.467 1.162 9.353 7.727 7.872 14.492-1.482 6.768-7.76 11.175-13.23 10.013-5.47-1.162-8.705-7.59-7.224-14.358 1.477-6.769 7.111-11.31 12.582-10.147z"/><path fill="none" stroke="#F8BB39" stroke-width="3" d="M440.983 213.204c5.467 1.162 9.353 7.727 7.872 14.492-1.482 6.768-7.76 11.175-13.23 10.013-5.47-1.162-8.705-7.59-7.224-14.358 1.477-6.769 7.111-11.31 12.582-10.147z"/><path fill="#FFF" d="M439.873 218.268c.08-.151.181-.297.313-.43.751-.762 2.022-.83 2.87-.143.231.188 2.274 1.927 2.334 4.763.025 1.052-.88 1.906-2.016 1.911-1.138.006-2.08-.842-2.101-1.886-.024-1.172-.896-1.938-.935-1.97-.682-.594-.853-1.511-.465-2.245zM443.235 230.19a2.46 2.46 0 0 0 1.667-2.761 2.424 2.424 0 0 0-.077-.355c-.003-.003-.003-.003-.003-.006-.002-.003-.002-.008-.005-.009a2.43 2.43 0 0 0-.174-.402l-.025-.04c-.028-.05-.052-.096-.084-.144-.038-.056-.076-.117-.12-.173a2.156 2.156 0 0 0-.615-.566 2.516 2.516 0 0 0-1.514-.422 2.49 2.49 0 0 0-1.694.801c-.118.175-.242.351-.367.525-.21.403-.3.833-.276 1.288l-.003.043c-.054.749.621 1.788 1.326 2.049.017.004.029.01.04.016.21.072.417.15.628.226.439.09.871.07 1.296-.07z"/></g><g style="display:block"><path fill="#FFE23D" d="M152.668 28.48c-.682-.778-4.333-1.162-9.313-.252-3.812.697-8.162 1.89-11.249 3.317-9.393 4.341-15.927 12.295-16.806 14.23-.474 1.04-.5 2.174-.162 3.309.322 1.08.99 2.167 1.842 3.111.962 1.066 2.15 1.947 3.247 2.462 1.486.696 2.787.664 3.626.187.17-.097.542-.433 1.062-1.082 1.34-1.676 4.841-6.037 12.438-9.782 4.753-2.343 8.707-2.79 11.45-3.106 2.377-.275 3.946-.63 4.761-1.392 1.04-.977 1.539-3.012 1.281-5.314-.244-2.182-1.1-4.459-2.177-5.687z"/><path fill="none" stroke="#E19F34" stroke-width="3" d="M152.668 28.48c-.682-.778-4.333-1.162-9.313-.252-3.812.697-8.162 1.89-11.249 3.317-9.393 4.341-15.927 12.295-16.806 14.23-.474 1.04-.5 2.174-.162 3.309.322 1.08.99 2.167 1.842 3.111.962 1.066 2.15 1.947 3.247 2.462 1.486.696 2.787.664 3.626.187.17-.097.542-.433 1.062-1.082 1.34-1.676 4.841-6.037 12.438-9.782 4.753-2.343 8.707-2.79 11.45-3.106 2.377-.275 3.946-.63 4.761-1.392 1.04-.977 1.539-3.012 1.281-5.314-.244-2.182-1.1-4.459-2.177-5.687z"/><path fill="#E8AC34" d="M123.018 53.543c.581-.322 3.874-6 13.694-10.712 8.318-3.99 14.308-2.632 15.991-4.168.688-.634.939-1.895.873-3.3-1.122-1.956-5.083-1.534-13.883.656-11.504 2.863-18 14.392-18 14.392l-.368 3.118c.67.217 1.272.247 1.693.014z"/><path fill="#FFCC3A" d="M124.498 47.938c3.22-6.369 12.233-10.98 12.233-10.98-7.199 2.152-11.49 7.584-13.256 9.975a1.318 1.318 0 0 0-.401-.12c-2.109-.254-6.408-.147-6.408-.147-1.517 3.14 4.05 7.56 6.318 6.995.1-.037.202-.07.294-.108.192-.102.688-.772 1.599-1.777.43-1.252.215-2.802-.38-3.838z"/></g><g style="display:block"><path fill="#FFE23D" d="M267.793 100.364c-4.524 1.64-8.193 2.053-9.012 1.53-1.344-.855-2.681-2.653-3.396-4.49-.798-2.053-.693-3.972.169-5.056.633-.794 2.1-1.402 4.36-2.073 2.62-.78 6.404-1.893 10.566-4.763 8.646-5.964 17.235-17.714 18.028-18.794 1.032-.928 2.273-1.18 3.806-.88 1.169.227 2.501.748 3.654 1.463 1.05.65 1.942 1.461 2.494 2.328.625.984.845 2.042.578 3.1-.941 3.726-9.354 15.142-20.968 22.75-2.711 1.776-6.705 3.59-10.28 4.885z"/><path fill="none" stroke="#E19F34" stroke-width="3" d="M267.793 100.364c-4.524 1.64-8.193 2.053-9.012 1.53-1.344-.855-2.681-2.653-3.396-4.49-.798-2.053-.693-3.972.169-5.056.633-.794 2.1-1.402 4.36-2.073 2.62-.78 6.404-1.893 10.566-4.763 8.646-5.964 17.235-17.714 18.028-18.794 1.032-.928 2.273-1.18 3.806-.88 1.169.227 2.501.748 3.654 1.463 1.05.65 1.942 1.461 2.494 2.328.625.984.845 2.042.578 3.1-.941 3.726-9.354 15.142-20.968 22.75-2.711 1.776-6.705 3.59-10.28 4.885z"/><path fill="#E8AC34" d="M290.832 64.214c.753-.568-9.48 14.904-18.986 21.242-7.398 4.936-13.776 6.131-15.113 7.752-.55.668-.513 1.792-.139 2.98 1.548 1.464 5.4.379 13.672-3.104 14.549-6.124 23.867-23.182 24.675-24.468l-2.586-1.292c-.719-.064 3.68 4.1 3.314 4.375"/><path fill="#FFCC3A" d="M289.633 67.715c-.138 1.167.169 4.123.982 4.917-2.456 8.715-14.098 16.323-17.75 19.195 10.236-4.936 17.046-14.624 18.978-18.503.144.026.28.042.42.03 2.127-.16 6.322-1.026 6.322-1.026.784-3.007-4.402-6.544-6.503-5.645-.086.05-.378-1.192-.457-1.144-.167.123-1.199-1.108-1.87-.068l.09-.559"/></g><g style="display:block"><path fill="none" stroke="#9C251F" stroke-width="3" d="m73.884 195.404-36.69 22.127c5.385 6.517 28.658 34.633 30.776 36.441 1.023.879 3.007.899 5.39.412 2.639-.539 5.792-1.808 9.123-3.87 3.286-2.035 5.77-4.253 7.415-6.352 1.567-1.999 2.428-3.857 2.181-5.225-.23-1.266-14.85-35.672-18.195-43.533z"/><path fill="#B83C34" d="M76.771 205.376c-1.89-4.8-3.217-8.163-3.217-8.163l-33.652 21.836s8.876 9.93 14.712 17.458c0 0 17.223-7.869 23.742-26.921M68.237 252.276c1.191 2.093 7.516 1.04 13.687-2.858 6.169-3.897 9.568-8.869 8.65-11.258-.1-.574-3.984-9.14-7.627-17.988-5.174 9.874-12.101 17.7-22.393 23.122 3.898 4.71 7.017 8.404 7.683 8.982z"/><path fill="#352C2C" d="M73.77 192.158c2.45 4.037-4.368 12.804-15.222 19.584-10.852 6.778-21.636 9-24.085 4.964-2.448-4.037 4.366-12.806 15.222-19.585 10.853-6.777 21.637-9 24.085-4.963z"/><path fill="none" stroke="#000" stroke-linecap="round" stroke-linejoin="round" stroke-width="2.171" d="M73.77 192.158c2.45 4.037-4.368 12.804-15.222 19.584-10.852 6.778-21.636 9-24.085 4.964-2.448-4.037 4.366-12.806 15.222-19.585 10.853-6.777 21.637-9 24.085-4.963z"/><path fill="#221C1C" d="M70.822 197.646c1.836 3.062-3.278 9.716-11.419 14.858-8.141 5.146-16.232 6.833-18.064 3.771-1.837-3.062 3.277-9.715 11.416-14.86 8.143-5.143 16.232-6.83 18.067-3.769z"/><path fill="#FFF" d="M59.342 175.952c4.266 2.654 1.857 14.242-5.38 25.883-7.241 11.643-16.567 18.93-20.837 16.278-4.266-2.658-8.136-5.067-8.136-5.067l26.21-42.16s6.276 3.906 8.143 5.066z"/><path fill="none" stroke="#C4C4C4" stroke-linecap="round" stroke-linejoin="round" stroke-width="1.737" d="M59.342 175.952c4.266 2.654 1.857 14.242-5.38 25.883-7.241 11.643-16.567 18.93-20.837 16.278-4.266-2.658-8.136-5.067-8.136-5.067l26.21-42.16s6.276 3.906 8.143 5.066z"/><path fill="#FFF" d="M51.406 171.41c4.266 2.682 1.857 14.385-5.386 26.144-7.249 11.757-16.583 19.118-20.856 16.437-4.267-2.68-1.856-14.385 5.388-26.144 7.245-11.757 16.581-19.118 20.854-16.437z"/><path fill="none" stroke="#C4C4C4" stroke-linecap="round" stroke-linejoin="round" stroke-width="1.737" d="M51.406 171.41c4.266 2.682 1.857 14.385-5.386 26.144-7.249 11.757-16.583 19.118-20.856 16.437-4.267-2.68-1.856-14.385 5.388-26.144 7.245-11.757 16.581-19.118 20.854-16.437z"/><path fill="#DCDCDC" d="M30.282 205.443c1.405-.236 5.746-3.942 10.361-11.29 4.615-7.345 6.048-12.843 5.646-14.195-1.403.238-5.747 3.945-10.36 11.291-4.613 7.345-6.057 12.843-5.647 14.194zm13.051-9.631c-3.606 5.743-10.778 14.815-14.765 12.358-3.981-2.454 1.06-12.834 4.668-18.581 3.611-5.745 10.777-14.813 14.763-12.357 3.986 2.455-1.055 12.833-4.666 18.58z"/><path fill="#352C2C" d="M38.961 193.355c-1.155 1.317-2.077 2.112-3.38.94l-16.057-15.058a3.19 3.19 0 0 1-1.058-2.3l-.806-10.027c-.047-1.763 1.326-3.23 3.068-3.278 1.741-.049 3.193 1.34 3.24 3.102l.767 8.645 15.033 14.143c1.168 1.046.312 2.1-.484 3.396-.094.15-.199.295-.323.437zM59.82 193.428c-6.03-10.987 1.361-52.84 17.892-51.97 17.127.9 5.315 27.93 1.187 35.621 3.428-1.51 8.81 2.766 8.807 6.35 0 7.504-12.238 11.802-17.652 13.552"/><path fill="none" stroke="#221C1C" stroke-linecap="round" stroke-linejoin="round" stroke-width="1.303" d="M59.82 193.428c-6.03-10.987 1.361-52.84 17.892-51.97 17.127.9 5.315 27.93 1.187 35.621 3.428-1.51 8.81 2.766 8.807 6.35 0 7.504-12.238 11.802-17.652 13.552"/><path fill="#221C1C" d="M82.317 183.316c-1.34-3.397-4.475-1.4-5.948-2.695-1.673-1.477-.943-4.76-1.093-7.2-.207-5.132.806-9.205 1.591-14.234.306-1.977 1.026-5.048-.381-6.491-1.448-1.486-3.592.995-4.635 2.239-5.827 6.948-9.439 17.82-10.418 27.699.402 9.458 2.46 11.284 6.057 11.489 3.595.204 16.168-7.41 14.827-10.807z"/><path fill="#352C2C" d="M73.163 135.2c-.771-.01-1.542-.223-2.294-.63-2.105-1.145-3.383-3.34-3.604-6.18-.27-3.49 1.164-7.172 3.49-8.952 1.067-.817 2.317-1.24 3.613-1.222a5.865 5.865 0 0 1 2.665.697 6.511 6.511 0 0 1 2.14 1.853c1.832 2.455 1.153 7.058-.415 10.143-1.4 2.758-3.439 4.323-5.595 4.292z"/><path fill="#221C1C" d="M74.908 117.224c-1.627-.023-3.193.499-4.528 1.512-2.778 2.105-4.434 6.251-4.116 10.313.26 3.313 1.862 5.996 4.395 7.36.958.516 1.952.784 2.954.798 2.728.04 5.259-1.818 6.938-5.098 1.85-3.606 2.553-8.804.324-11.765a7.965 7.965 0 0 0-2.638-2.26 7.37 7.37 0 0 0-3.329-.86zm-.034 2.38c.775.012 1.542.211 2.245.583.692.366 1.327.9 1.84 1.584 2.546 3.382-.541 13.127-5.312 13.058-.592-.009-1.21-.17-1.847-.513-4.727-2.545-3.729-10.836.035-13.69a4.874 4.874 0 0 1 3.039-1.021z"/><path fill="#352C2C" d="M95.52 108.522c-.846-.012-1.617-.345-2.17-.937-1.14-1.441-1.026-3.64.196-5.077.33-.395.69-.727 1.064-.992.891-.625 1.834-.95 2.8-.963a6.71 6.71 0 0 1 .198-.002c1.073.016 1.998.442 2.536 1.17.577.876.585 2.015.06 3.18-.425.933-1.113 1.823-1.855 2.397-.789.793-1.814 1.239-2.828 1.224z"/><path fill="#221C1C" d="M97.59 99.551a5.999 5.999 0 0 0-.296.005c-1.115.02-2.25.454-3.303 1.287-.44.349-.855.782-1.236 1.288-1.493 1.972-1.613 4.906-.275 6.816a3.841 3.841 0 0 0 3.058 1.575c1.283.019 2.561-.583 3.537-1.655.823-.738 1.579-1.839 2.043-2.985.65-1.608.616-3.226-.09-4.439-.023-.04-.045-.078-.069-.115-.732-1.108-1.96-1.757-3.368-1.777zm-.034 2.383c.63.009 1.177.262 1.488.732.322.558.299 1.406-.06 2.3-.33.812-.9 1.669-1.521 2.183-.557.66-1.253 1.002-1.89.993a1.58 1.58 0 0 1-1.215-.588c-.723-1.034-.646-2.814.228-3.966.228-.304.5-.607.813-.855.6-.474 1.274-.785 2.002-.798.052 0 .103-.002.155-.001z"/><path fill="#FFF" d="M62.59 157.785a1.498 1.498 0 0 0-.88-.698c-.31-.09-.643-.07-.942.045a1.021 1.021 0 0 0-.202.09h-.004a1.33 1.33 0 0 0-.221.156l-.02.017c-.026.02-.05.043-.073.066l-.09.09a1.305 1.305 0 0 0-.26.426 1.496 1.496 0 0 0-.07.943c.097.371.341.698.67.898.12.05.235.101.353.154.264.074.528.078.79.011.007-.002.02-.001.025-.003.45-.056.983-.575 1.052-1.024a.063.063 0 0 0 .006-.022c.018-.132.04-.262.058-.397a1.488 1.488 0 0 0-.193-.752zM62.272 175.027a1.978 1.978 0 0 0-1.17-.928 1.975 1.975 0 0 0-1.26.058 1.28 1.28 0 0 0-.268.118l-.005.002-.006.003c-.1.058-.199.126-.291.203-.01.007-.016.016-.025.022-.035.03-.067.06-.1.09a2.64 2.64 0 0 0-.114.12v.002c-.155.17-.284.364-.352.567a2.01 2.01 0 0 0-.093 1.253c.13.5.458.933.895 1.198.159.068.314.138.47.207.35.1.703.105 1.055.015l.033-.004c.598-.078 1.31-.767 1.405-1.363 0-.011.005-.023.005-.034.025-.175.054-.35.079-.524a1.962 1.962 0 0 0-.258-1.005zM78.327 111.763a.984.984 0 0 0-1.216-.435.567.567 0 0 0-.133.06h-.004l-.004.002a.852.852 0 0 0-.143.101l-.015.011-.047.047c-.02.018-.04.04-.06.06a.834.834 0 0 0-.174.282.988.988 0 0 0 .401 1.226l.234.104c.176.049.35.052.528.008l.017-.004c.298-.037.654-.38.704-.68l.002-.018c.011-.086.025-.175.039-.262a.985.985 0 0 0-.13-.502zM66.41 161.706a.769.769 0 0 0-1.051-.294l-.002.001h-.004a.88.88 0 0 0-.111.082.063.063 0 0 1-.012.007 1.009 1.009 0 0 0-.083.083v.001a.606.606 0 0 0-.136.222.754.754 0 0 0-.037.487.781.781 0 0 0 .347.469l.187.082a.752.752 0 0 0 .424.004c.233-.029.513-.3.548-.533 0-.006.002-.008.002-.01.007-.071.022-.142.031-.207a.772.772 0 0 0-.102-.394zM70.555 151.766a.767.767 0 0 0-.949-.34c-.036.01-.068.027-.102.044l-.002.002h-.004a.803.803 0 0 0-.126.09l-.034.036a.657.657 0 0 0-.184.27.755.755 0 0 0-.035.488.788.788 0 0 0 .347.468l.185.08c.137.04.273.042.41.006.006 0 .01 0 .016-.002.232-.03.51-.3.546-.532a.032.032 0 0 0 .002-.013c.01-.07.02-.137.033-.205a.73.73 0 0 0-.103-.392zM66.048 186.703a.77.77 0 0 0-1.052-.292h-.002l-.004.002a.605.605 0 0 0-.111.08l-.013.007c-.012.012-.026.024-.036.036a.658.658 0 0 0-.184.268.793.793 0 0 0-.035.491.785.785 0 0 0 .347.468c.064.026.123.053.187.08.135.04.271.042.41.006h.014c.232-.03.51-.302.548-.535 0-.006.002-.006.002-.01l.03-.206a.752.752 0 0 0-.101-.395z"/></g></g><path fill="#212121" d="M8.411-36.433s-25.31 13.889-25.31 39.348c0 25.455 19.233 37.576 33.797 32.307" style="display:block" transform="translate(151.398 255.908)"/><path fill="#212121" d="M-8.38-36.171S16.848-22.382 16.848 2.894c0 25.271-19.172 37.306-33.696 32.074" style="display:block" transform="rotate(-.419 35206.996 -45987.914)"/><g style="display:block"><path fill="#DDAB6B" d="M339.762 251.667c0 58.157-50.504 65.955-95.629 65.955-45.121 0-95.633-7.798-95.633-65.955 0-58.154 42.819-85.667 95.633-85.667 52.817 0 95.629 27.513 95.629 85.667z"/><path fill="none" stroke="#C38D46" stroke-width="4" d="M339.762 251.667c0 58.157-50.504 65.955-95.629 65.955-45.121 0-95.633-7.798-95.633-65.955 0-58.154 42.819-85.667 95.633-85.667 52.817 0 95.629 27.513 95.629 85.667z"/><path fill="#FFF" d="M330.843 243.735c0 58.216-38.823 67.941-86.714 67.941-47.89 0-86.71-9.725-86.71-67.941 0-58.211 86.71-53.26 86.71-16.798 0-36.462 86.714-41.413 86.714 16.798z"/><path fill="#CA9957" d="M232.529 248.067c-3.515 21.146-24.699 37.816-41.377 37.844-16.787-.125-28.231-13.842-27.76-33.339-.759-20.766 14.453-38.557 34.371-39.003 19.666-.115 37.068 13.405 34.766 34.498zM256.724 248.067c3.512 21.146 24.702 37.816 41.379 37.844 16.785-.125 28.231-13.842 27.757-33.339.762-20.766-14.451-38.557-34.373-39.003-19.664-.115-37.073 13.405-34.763 34.498z"/><path fill="#D11" d="M232.422 275.195s-.859 22.138 11.96 22.138c12.815 0 11.959-22.138 11.959-22.138"/><path fill="none" stroke="#212121" stroke-linecap="round" stroke-linejoin="round" stroke-width="3" d="M232.422 275.195s-.859 22.138 11.96 22.138c12.815 0 11.959-22.138 11.959-22.138"/><path fill="#FFF" d="M223.153 271.178s-.941 9.776 11.057 9.306c11.995-.471 9.717-10.896 9.717-18.636"/><path fill="none" stroke="#212121" stroke-linecap="round" stroke-linejoin="round" stroke-width="3" d="M223.153 271.178s-.941 9.776 11.057 9.306c11.995-.471 9.717-10.896 9.717-18.636"/><path fill="#FFF" d="M265.499 271.178s.937 9.776-11.057 9.306c-11.998-.471-9.722-10.896-9.722-18.636"/><path fill="none" stroke="#212121" stroke-linecap="round" stroke-linejoin="round" stroke-width="3" d="M265.499 271.178s.937 9.776-11.057 9.306c-11.998-.471-9.722-10.896-9.722-18.636"/><path fill="#221F1F" d="M254.536 255.827c0 6.591-4.66 8.281-10.405 8.281-5.745 0-10.407-1.69-10.407-8.281 0-6.587 4.662-6.584 10.407-6.584s10.405-.003 10.405 6.584z"/></g><g style="display:block"><path fill="#FFF" d="M168.336 321.939c-4.034 2.409-9.322 1.051-11.752-3.017l-37.117-62.172c-2.428-4.067-1.114-9.367 2.921-11.776l32.972-19.685c4.035-2.408 9.324-1.05 11.752 3.018l37.117 62.17c2.429 4.069 1.114 9.367-2.921 11.777l-32.972 19.685z"/><path fill="none" stroke="#B89261" stroke-width="2.4" d="M168.336 321.939c-4.034 2.409-9.322 1.051-11.752-3.017l-37.117-62.172c-2.428-4.067-1.115-9.367 2.92-11.776l32.973-19.685c4.035-2.408 9.324-1.05 11.752 3.018l37.117 62.17c2.429 4.069 1.113 9.367-2.922 11.777l-32.97 19.685z"/><path fill="#FFD300" d="m156.4 230.425-29.985 17.902c-2.708 1.617-3.59 5.173-1.96 7.902l31.255 52.352c1.629 2.73 5.177 3.64 7.885 2.025l29.986-17.902c2.707-1.616 3.59-5.173 1.96-7.903l-31.255-52.352c-1.63-2.73-5.18-3.64-7.886-2.024z"/><path fill="#E1E1E1" d="m185.44 302.348-9.948 5.938a1.503 1.503 0 0 0-.51 2.056c.423.711 1.347.948 2.052.526l9.948-5.939c.703-.42.934-1.346.51-2.054a1.502 1.502 0 0 0-2.052-.527z"/></g><g style="display:block"><path fill="#222" d="M7.02.45v-10.84c0-.9-.48-1.3-1.24-1.3-.75 0-1.24.38-1.24 1.3v2.21H3.27v-2.21c0-.9-.48-1.3-1.23-1.3-.76 0-1.28.38-1.28 1.3v8.88C.76-.07 1.14.45 2.65.45h4.37zm3.96.62h2.51v-12.04c0-.77-.62-1.2-1.25-1.2-.65 0-1.26.41-1.26 1.2v3.91h-.69v-3.91c0-.77-.59-1.2-1.22-1.2-.65 0-1.23.41-1.23 1.2V1.07h2.45v-5.82h.69v5.82zM3.64-1.66c-.31 0-.37-.05-.37-.34v-3.96h1.27v4.3h-.9zm22.91 2.73c.58 0 .8-.42.8-.82 0-.42-.24-.86-.8-.86H18.6c-.22 0-.31-.12-.31-.26v-.05c0-.14.09-.26.31-.26h8.39v-2.26c0-1.11-.47-1.48-1.72-1.48h-9.03c-.53 0-.77.42-.77.82 0 .42.22.83.77.83h7.66c.18 0 .22.06.22.22v.37h-6.81c-1.28 0-2 .65-2 1.66v.17c0 1.02.72 1.92 2 1.92h9.24zM16.82-11.8c-1.61 0-1.96.38-1.96 1.87v2.47c0 1.5.35 1.88 1.96 1.88h5.33c.73 0 1-.57 1-1.07 0-.48-.27-1.03-1-1.03H18c-.26 0-.36-.06-.36-.33v-1.35c0-.24.1-.31.36-.31h3.61c.72 0 .99-.57.99-1.05 0-.5-.25-1.08-.99-1.08h-4.79zm7.27 6.43h2.8v-2.12h.43c.85 0 1.12-.62 1.12-1.2 0-.56-.26-1.19-1.12-1.19h-.43v-.89c0-.9-.67-1.4-1.4-1.4-.75 0-1.4.48-1.4 1.4v5.4z" aria-label="배달" font-family="Jalnan OTF" font-size="14" font-weight="400" style="display:inherit" transform="rotate(-30.838 567.78 -126.44)"/></g><g style="display:block"><path fill="#222" d="M10.15-1.62c.23 0 .34.13.34.34v2.35h2.85v-2.75c0-1.69-.33-2.17-2.09-2.17H2.52c-.79 0-1.22.45-1.22 1.11 0 .67.43 1.12 1.22 1.12h7.63zM8.84-4.67c.66 0 1.04-.53 1.04-1.04s-.32-.99-1.04-.99h-.48v-1.18c0-.83-.56-1.19-1.34-1.19-.77 0-1.34.36-1.34 1.19v1.18H4.53v-1.18c0-.83-.57-1.19-1.34-1.19-.78 0-1.34.36-1.34 1.19v1.18h-.26c-.72 0-1.04.48-1.04.99s.38 1.04 1.04 1.04h7.25zm1.58.27h2.85v-6.37c0-.9-.69-1.4-1.43-1.4s-1.42.48-1.42 1.4v6.37zM8.36-9.56c.66 0 1.04-.56 1.04-1.1 0-.53-.32-1.1-1.04-1.1H1.78c-.72 0-1.05.57-1.05 1.1 0 .54.38 1.1 1.05 1.1h6.58zm6.4 1.23c0 2.28 1.57 3.2 3.95 3.2 1.99 0 3.43-.66 3.79-2.29h1.96v2.4h2.81v-5.78c0-.89-.69-1.37-1.41-1.37-.74 0-1.4.47-1.4 1.37v1.18h-1.94c-.34-1.66-1.78-2.35-3.81-2.35-2.34 0-3.95.92-3.95 3.2v.44zm12.58 9.4v-4.3c0-.94-.61-1.35-1.4-1.35-.73 0-1.32.34-1.41 1.13h-6.31c-.1-.78-.67-1.13-1.39-1.13-.79 0-1.42.39-1.42 1.35v2.24c0 1.51.42 2.06 2 2.06h9.93zm-9.83-9.98c0-.71.49-1.06 1.2-1.06.7 0 1.2.35 1.2 1.06v.72c0 .72-.5 1.06-1.2 1.06-.71 0-1.2-.34-1.2-1.06v-.72zm1.1 8.11c-.31 0-.38-.05-.38-.36v-.49h6.29v.85h-5.91z" aria-label="픽업" font-family="Jalnan OTF" font-size="14" font-weight="400" style="display:inherit" transform="rotate(-30.838 599.896 -134.118)"/></g><g style="display:block"><path fill="#DDAB6B" d="M198.25 305.33c-.794 9.678-9.318 17.639-18.882 17.79-9.57.147-16.655-7.569-15.967-17.245.684-9.673 9.002-17.643 18.677-17.799 9.676-.152 16.964 7.576 16.172 17.255z"/><path fill="none" stroke="#C38D46" stroke-width="4" d="M198.25 305.33c-.794 9.678-9.318 17.639-18.882 17.79-9.57.147-16.655-7.569-15.967-17.245.684-9.673 9.002-17.643 18.677-17.799 9.676-.152 16.964 7.576 16.172 17.255z"/></g><g style="display:block"><path fill="#DDAB6B" d="M323.918 306.512c-.935-9.669-9.574-17.505-19.142-17.513-9.571-.007-16.542 7.812-15.709 17.474.826 9.665 9.254 17.513 18.931 17.526 9.684.011 16.855-7.822 15.92-17.487z"/><path fill="none" stroke="#C38D46" stroke-width="4" d="M323.918 306.512c-.935-9.669-9.574-17.505-19.142-17.513-9.571-.007-16.542 7.812-15.709 17.474.826 9.665 9.254 17.513 18.931 17.526 9.684.011 16.855-7.822 15.92-17.487z"/></g><g style="display:block"><path fill="#212121" d="M221.458 248.304c1.243 12.266-1.74 22.601-12.849 23.704-11.111 1.097-16.108-8.445-17.347-20.719-1.239-12.265 1.741-22.604 12.849-23.704 11.112-1.096 16.108 8.45 17.347 20.719z"/><path fill="#FFF" d="M212.767 257.629c-.568 2.12-2.324 3.498-3.915 3.071-1.593-.426-2.421-2.496-1.853-4.617.569-2.122 2.32-3.498 3.914-3.072 1.59.427 2.423 2.495 1.854 4.618zM209.303 243.356c0 4.714-2.874 8.546-6.41 8.546-3.544 0-6.412-3.832-6.412-8.546 0-4.718 2.868-8.546 6.412-8.546 3.536 0 6.41 3.828 6.41 8.546z"/></g><g style="display:block"><path fill="#212121" d="M299.48 251.223c-1.181 12.271-6.137 21.843-17.269 20.792-11.127-1.051-14.158-11.373-12.969-23.641 1.18-12.274 6.133-21.843 17.264-20.796 11.132 1.051 14.161 11.374 12.974 23.645z"/><path fill="#FFF" d="M291.703 257.746c-.654 2.441-2.675 4.027-4.507 3.536-1.833-.492-2.787-2.874-2.133-5.316.655-2.443 2.671-4.028 4.505-3.536 1.832.49 2.79 2.872 2.135 5.316zM287.842 243.356c0 4.382-2.672 7.944-5.96 7.944-3.292 0-5.958-3.562-5.958-7.944 0-4.386 2.666-7.944 5.958-7.944 3.288 0 5.96 3.558 5.96 7.944z"/></g></g></svg>