<svg xmlns="http://www.w3.org/2000/svg" width="491" height="311" style="width:100%;height:100%;transform:translate3d(0,0,0)"><defs><clipPath id="a"><path d="M0 0h491v311H0z"/></clipPath><clipPath id="b"><path d="M0 0h491v311H0z"/></clipPath></defs><g clip-path="url(#a)"><g style="display:block"><path fill="#D11" d="M336.357 291.404c5.7-11.14 17.021-21.197 17.021-39.212 0-18.019-11.32-28.076-17.021-39.215-3.845-11.908-2.954-27.025-15.692-39.763-12.741-12.742-27.857-11.847-39.764-15.696-11.143-5.7-21.196-17.018-39.214-17.018-18.018 0-28.076 11.323-39.218 17.02-11.904 3.848-27.021 2.956-39.757 15.694-12.743 12.742-11.848 27.859-15.697 39.769-5.7 11.135-17.015 21.192-17.015 39.209 0 18.017 11.32 28.075 17.02 39.218 3.844 11.906 2.952 27.019 15.693 39.754 12.737 12.742 27.853 11.847 39.761 15.696 11.141 5.699 21.196 17.018 39.213 17.018 18.018 0 28.071-11.319 39.214-17.018 11.906-3.849 27.023-2.954 39.764-15.694 12.738-12.741 11.845-27.855 15.692-39.762z"/><path fill="none" stroke="#B81A1A" stroke-width="4" d="M336.357 291.404c5.7-11.14 17.021-21.197 17.021-39.212 0-18.019-11.32-28.076-17.021-39.215-3.845-11.908-2.954-27.025-15.692-39.763-12.741-12.742-27.857-11.847-39.764-15.696-11.143-5.7-21.196-17.018-39.214-17.018-18.018 0-28.076 11.323-39.218 17.02-11.904 3.848-27.021 2.956-39.757 15.694-12.743 12.742-11.848 27.859-15.697 39.769-5.7 11.135-17.015 21.192-17.015 39.209 0 18.017 11.32 28.075 17.02 39.218 3.844 11.906 2.952 27.019 15.693 39.754 12.737 12.742 27.853 11.847 39.761 15.696 11.141 5.699 21.196 17.018 39.213 17.018 18.018 0 28.071-11.319 39.214-17.018 11.906-3.849 27.023-2.954 39.764-15.694 12.738-12.741 11.845-27.855 15.692-39.762z"/><path fill="#FFDA6E" d="M160.916 260.717c0-47.895 37.039-82.343 80.286-82.343 43.251 0 80.286 34.448 80.286 82.343 0 47.894-37.035 65.263-80.286 65.263-43.247 0-80.286-17.369-80.286-65.263z"/></g><g clip-path="url(#b)" style="display:block" transform="translate(0 3.331)"><path fill="#FFF69B" d="M3.702-3.048s-2.618-8.92-3.703-8.92-3.703 8.92-3.703 8.92S-10.473-.855-10.473 0s6.769 3.047 6.769 3.047 2.571 8.921 3.703 8.921c1.133 0 3.703-8.921 3.703-8.921S10.473.887 10.473 0c0-.888-6.771-3.048-6.771-3.048z" style="display:block" transform="translate(282.507 115.839) scale(1.07343)"/><path fill="#FFF69B" d="M5.289-4.444s-3.74-13.009-5.29-13.009c-1.549 0-5.289 13.009-5.289 13.009S-14.96-1.246-14.96 0c0 1.247 9.67 4.445 9.67 4.445s3.673 13.008 5.289 13.008c1.618 0 5.29-13.008 5.29-13.008S14.96 1.295 14.96 0c0-1.295-9.671-4.444-9.671-4.444z" style="display:block" transform="matrix(1.00657 0 0 1.00657 112.46 121.323)"/><path fill="#FFF69B" d="M5.817-4.825S1.704-18.949-.001-18.949c-1.705 0-5.819 14.124-5.819 14.124S-16.456-1.353-16.456 0c0 1.355 10.636 4.826 10.636 4.826s4.04 14.123 5.819 14.123S5.817 4.826 5.817 4.826 16.456 1.405 16.456 0c0-1.405-10.639-4.825-10.639-4.825z" style="display:block" transform="translate(399.196 234.521) scale(1.07343)"/><path fill="#FFF69B" d="M7.052-6.476S2.066-25.432-.001-25.432c-2.066 0-7.052 18.956-7.052 18.956S-19.947-1.816-19.947.001c0 1.816 12.894 6.476 12.894 6.476s4.897 18.955 7.052 18.955c2.157 0 7.053-18.955 7.053-18.955S19.947 1.886 19.947.001c0-1.888-12.895-6.477-12.895-6.477z" style="display:block" transform="matrix(1.00657 0 0 1.00657 307.939 80.433)"/><g style="display:block"><path fill="#FDFDFD" d="M486.146 117.188c-1.522-2.593-3.976-4.141-6.728-4.254a8.238 8.238 0 0 0-1.19.038c-3.195.334-5.915.447-8.307.35-7.795-.32-13.552-2.988-19.252-8.926-1.395-1.455-3.277-2.27-5.44-2.358-2.82-.116-5.842 1.087-7.88 3.143-8.043 8.112-27.167 22.239-67.238 29.965 1.012 3.072 1.75 7.113 1.366 12.095 0 0-2.834 13.553 6.672 21.788 1.166 1.01 2.488 1.811 3.867 2.502 3.405 1.706 12.557 6.976 16.334 15.766 26.724-3.675 65.378-16.792 88.12-59.834 1.646-3.11 1.518-7.146-.324-10.275z"/><path fill="#E73A37" d="M382.016 171.531c-1.378-.69-2.701-1.492-3.867-2.502-9.505-8.235-6.671-21.788-6.671-21.788.382-4.982-.356-9.023-1.368-12.095a259.983 259.983 0 0 1-9.78 1.696c-3.627.554-6.745 2.818-8.338 6.057-1.61 3.269-1.494 6.963.318 10.138 4.453 7.808 7.936 13.164 12.343 19.948 1.213 1.865 2.494 3.838 3.887 5.998a20.53 20.53 0 0 0 6.876 6.584 8.192 8.192 0 0 0 2.86 1.393 20.703 20.703 0 0 0 6.788 1.45c.675.027 1.354.022 2.037-.018 3.41-.194 7.194-.536 11.25-1.094-3.778-8.79-12.929-14.06-16.335-15.767z"/><path fill="none" stroke="#AF1212" stroke-width="3" d="M486.146 117.187c-1.522-2.593-3.976-4.141-6.728-4.254a8.241 8.241 0 0 0-1.19.04c-3.195.333-5.915.446-8.307.348-7.795-.32-13.552-2.987-19.252-8.925-1.395-1.455-3.277-2.27-5.44-2.36-2.82-.115-5.842 1.088-7.88 3.144-8.042 8.112-27.167 22.239-67.238 29.965a260.479 260.479 0 0 1-9.782 1.696c-3.627.554-6.744 2.82-8.337 6.058-1.61 3.269-1.493 6.962.318 10.137 4.454 7.808 7.937 13.164 12.344 19.948 1.213 1.865 2.494 3.838 3.886 5.998a20.527 20.527 0 0 0 6.877 6.585 8.188 8.188 0 0 0 2.858 1.393c2.14.848 4.43 1.353 6.79 1.45.675.027 1.352.022 2.036-.018 3.41-.194 7.193-.536 11.25-1.095 26.723-3.675 65.377-16.792 88.12-59.834 1.645-3.11 1.517-7.147-.325-10.276z"/><path fill="#333" d="M415.041 150.327c1.968-2.015 2.246-4.757.39-6.884l-6.49-7.436c-1.484-1.697-4.362-.09-3.245 1.19l4.784 5.48c.404.46.219 1.098-.414 1.42-.628.322-1.463.21-1.87-.25l-5.328-6.104c-.717-.603-1.687-.302-2.204-.035-.017.008-.031.017-.046.027-.017.01-.036.014-.052.022-.518.265-1.254.838-.803 1.575l5.329 6.104c.404.462.221 1.097-.41 1.42-.63.325-1.468.213-1.872-.25l-4.784-5.48c-1.117-1.277-4.155.143-2.671 1.844l6.49 7.436c1.874 2.144 5.334 2.99 8.541 2.331l12.541 14.479c.828.948 2.547 1.185 3.836.526 1.291-.663 1.662-1.97.835-2.919l-12.557-14.496zM432.693 141.481c2.81-2.397 3.37-5.889.42-9.268-3.55-4.066-10.79-6.396-15.223-4.125-4.437 2.275-4.391 8.291-.84 12.356 2.842 3.254 7.057 4.238 10.9 3.352l13.503 14.478c.83.949 2.546 1.184 3.837.523 1.292-.662 1.665-1.969.835-2.915l-13.432-14.4z"/></g><g style="display:block"><path fill="#FDFDFD" d="m284.82 55.56-.567-.469c-3.81-3.13-10.903-8.959-12.126-21.76-.34-3.588-3.456-6.212-7.575-6.38-2.354-.097-4.669.678-6.348 2.123-8.752 7.538-25.857 20.146-48.404 26.594-.095 2.598-.35 5.732-.955 8.846a14.224 14.224 0 0 1-1.034 3.212c-1.676 3.65-5.831 15.163 3.08 24.547 0 0 5.936 6.975 9.706 15.642 18.949-4.465 52.671-15.85 66.387-42.063 1.823-3.486.936-7.72-2.163-10.291z"/><path fill="#E73A37" d="M207.81 67.725c.471-1.026.82-2.102 1.035-3.21.604-3.115.86-6.249.956-8.847-3.15.9-6.405 1.683-9.76 2.313-4.095.77-7.021 4.266-6.956 8.315.14 9.168 1.505 26.503 9.092 39.6 1.418 2.448 4.021 3.98 6.966 4.102a8.816 8.816 0 0 0 1.845-.118c2.349-.4 5.667-1.037 9.609-1.965-3.77-8.668-9.706-15.642-9.706-15.642-8.911-9.384-4.755-20.896-3.08-24.548z"/><path fill="none" stroke="#9C1714" stroke-width="3" d="m284.82 55.56-.567-.469c-3.81-3.13-10.903-8.959-12.126-21.76-.34-3.588-3.456-6.213-7.575-6.381-2.354-.097-4.669.678-6.348 2.123-8.752 7.538-25.857 20.146-48.404 26.594-3.15.9-6.403 1.684-9.758 2.313-4.095.771-7.023 4.266-6.958 8.316.14 9.168 1.507 26.502 9.093 39.599 1.419 2.448 4.022 3.98 6.967 4.103a8.756 8.756 0 0 0 1.845-.118 158.51 158.51 0 0 0 9.608-1.965c18.949-4.465 52.671-15.852 66.387-42.064 1.823-3.486.936-7.72-2.163-10.291z"/><path fill="#333" d="M242.318 50.678c-3.243 1.548-3.883 6.969-1.949 11.033 1.554 3.254 4.287 4.64 6.98 4.268l6.892 15.431a1.897 1.897 0 0 0 2.525.903 1.902 1.902 0 0 0 .89-2.533l-6.855-15.355c2.163-1.841 2.92-4.944 1.309-8.321-1.934-4.062-6.55-6.973-9.792-5.426zM235.695 62.98a.927.927 0 0 1-.436 1.235.923.923 0 0 1-1.232-.436l-2.903-6.098c-.42-.622-1.107-.46-1.484-.277-.014.006-.023.009-.033.016l-.039.016c-.38.182-.937.614-.715 1.327l2.906 6.099a.927.927 0 0 1-.437 1.233.927.927 0 0 1-1.232-.437l-2.609-5.474c-.61-1.277-2.814-.338-2.005 1.36l3.538 7.424a5.455 5.455 0 0 0 5.498 3.078l6.918 15.483a1.898 1.898 0 0 0 2.527.902 1.896 1.896 0 0 0 .885-2.531l-6.926-15.504a5.462 5.462 0 0 0 1.028-6.168l-3.54-7.425c-.808-1.697-2.926-.573-2.319.704l2.61 5.473z"/></g><g opacity=".4" style="display:block"><path fill="#FDFDFD" d="M195.942 24.296c-4.561-3.827-7.224-8.427-7.918-13.675-.526-4.01-3.719-7.033-7.588-7.192a7.786 7.786 0 0 0-1.47.08c-10.33 1.542-30.794 8.355-56.38 35.944 1.898 2.24 3.982 5.521 4.93 9.871 0 0 .358 10.24 15.135 13.204 0 0 4.207.212 13.475 5.644 6.528-8.994 19.229-23.39 37.35-30.118 2.741-1.019 4.677-3.361 5.18-6.266.49-2.853-.522-5.652-2.714-7.492z" opacity="1"/><path fill="#E73A37" d="M127.514 49.324c-.947-4.35-3.03-7.631-4.93-9.87-2.02 2.178-4.068 4.47-6.149 6.914a8.13 8.13 0 0 0-1.727 7.11c1.453 6.12 7.232 17.196 29.598 22.62a8.186 8.186 0 0 0 8.794-3.512 95.63 95.63 0 0 1 3.025-4.414c-9.268-5.432-13.475-5.644-13.475-5.644-14.777-2.964-15.136-13.204-15.136-13.204z" opacity="1"/><path fill="none" stroke="#9C1714" stroke-width="3" d="M195.942 24.295c-4.561-3.827-7.224-8.426-7.918-13.674-.526-4.01-3.719-7.033-7.588-7.192a7.786 7.786 0 0 0-1.47.08c-10.33 1.542-30.794 8.355-56.38 35.944-2.021 2.18-4.069 4.47-6.15 6.916a8.128 8.128 0 0 0-1.727 7.109c1.453 6.12 7.232 17.196 29.598 22.62a8.182 8.182 0 0 0 8.793-3.512 95.746 95.746 0 0 1 3.026-4.414c6.528-8.994 19.229-23.391 37.35-30.119 2.741-1.019 4.677-3.36 5.18-6.265.49-2.853-.522-5.653-2.714-7.493z" opacity="1"/><path fill="#221815" d="M151.65 20.755c-2.236 2.04-1.427 6.565 1.127 9.363 2.046 2.241 4.59 2.692 6.67 1.732l9.4 10.309a1.597 1.597 0 0 0 2.257.108c.65-.591.693-1.605.097-2.257l-9.35-10.255c1.293-2.014 1.146-4.699-.98-7.025-2.554-2.798-6.986-4.015-9.221-1.975zM149.32 32.285a.782.782 0 0 1-.05 1.1.782.782 0 0 1-1.101-.051l-3.834-4.2c-.489-.401-1.003-.1-1.264.136-.009.007-.015.017-.023.025-.009.007-.016.013-.024.023-.262.237-.608.721-.256 1.243l3.835 4.203a.776.776 0 0 1-.05 1.099.782.782 0 0 1-1.1-.048l-3.44-3.773c-.803-.882-2.355.417-1.287 1.586l4.67 5.117a4.596 4.596 0 0 0 5.186 1.133l9.43 10.343c.598.652 1.61.7 2.257.11.651-.594.695-1.605.099-2.256l-9.443-10.358a4.601 4.601 0 0 0-.682-5.222l-4.671-5.116c-1.066-1.17-2.499.255-1.695 1.135l3.443 3.771z" opacity="1"/></g><g style="display:block"><path fill="#FDFDFD" d="M107.689 199.161c-4.705-3.37-9.354-8.14-8.162-18.005.229-1.867-.34-3.662-1.642-5.195-1.73-2.037-4.613-3.375-7.523-3.495a9.884 9.884 0 0 0-.624-.006c-2.043.043-4.184.02-6.37-.07-12.431-.51-31.304-3.328-53.688-13.306-1.433 3.061-3.205 6.186-5.238 8.448 0 0-11.73 15.495-1.398 34.111 0 0 4.543 5.988 6.51 15.578 8.556 3.755 18.991 6.738 31.06 7.233 14.6.598 29.598-2.561 44.581-9.388 3.2-1.46 5.494-4.696 5.839-8.245.304-3.123-.916-5.917-3.345-7.66z"/><path fill="#E73A37" d="M25.758 165.905c1.488-2.021 2.808-4.44 3.922-6.82a181.413 181.413 0 0 1-8.818-4.22 9.757 9.757 0 0 0-4.082-1.084c-5.075-.208-9.495 3.572-10.06 8.605l-3.305 29.448a14.01 14.01 0 0 0 4.994 12.392c4.51 3.734 11.676 8.839 21.145 12.995-1.966-9.59-6.51-15.579-6.51-15.579-4.882-8.797-4.838-16.896-3.433-22.995 1.07-4.644 3.321-8.903 6.147-12.742z"/><path fill="#221815" d="M66.261 178.127c-3.847-.454-7.549 4.12-8.117 8.936-.456 3.859 1.242 6.697 3.912 7.906l-2.222 17.534a2.046 2.046 0 0 0 1.787 2.274 2.048 2.048 0 0 0 2.268-1.797l2.208-17.442c3.033-.432 5.507-2.825 5.979-6.832.57-4.815-1.966-10.126-5.815-10.579zM53.15 185.534a.998.998 0 0 1-1.98-.237l.854-7.229c-.023-.807-.742-1.054-1.193-1.108l-.041-.001a.337.337 0 0 1-.044-.005c-.447-.054-1.205.019-1.415.797l-.855 7.232a.996.996 0 0 1-1.979-.234l.766-6.493c.18-1.515-2.373-1.925-2.609.088l-1.04 8.804a5.882 5.882 0 0 0 3.247 5.966l-2.228 17.593a2.047 2.047 0 0 0 1.783 2.275 2.047 2.047 0 0 0 2.268-1.797l2.23-17.615a5.886 5.886 0 0 0 4.484-5.03l1.037-8.807c.239-2.014-2.338-2.207-2.519-.692l-.765 6.493z"/><path fill="none" stroke="#9C1714" stroke-width="3" d="M107.688 199.161c-4.705-3.37-9.353-8.14-8.161-18.005.229-1.867-.34-3.662-1.642-5.195-1.73-2.037-4.614-3.375-7.524-3.495a9.852 9.852 0 0 0-.623-.006c-2.043.043-4.184.02-6.37-.07-12.431-.51-31.305-3.328-53.689-13.306a181.354 181.354 0 0 1-8.817-4.218 9.742 9.742 0 0 0-4.082-1.084c-5.075-.208-9.494 3.572-10.06 8.605l-3.305 29.448a14.005 14.005 0 0 0 4.995 12.391c4.509 3.734 11.676 8.839 21.144 12.995 8.557 3.756 18.99 6.738 31.058 7.233 14.601.598 29.6-2.561 44.583-9.388 3.2-1.46 5.494-4.696 5.839-8.245.304-3.123-.917-5.917-3.346-7.66z"/></g></g><g style="display:block"><path fill="#FFF" d="M164.246 324.567c-3.636 2.976-9.067 2.412-12.068-1.252l-45.871-56.027c-3-3.666-2.482-9.1 1.154-12.078l29.712-24.328c3.637-2.976 9.067-2.413 12.069 1.253l45.87 56.025c3.002 3.666 2.483 9.102-1.154 12.08l-29.712 24.327z"/><path fill="none" stroke="#B76B6B" stroke-width="2.2" d="M164.247 324.567c-3.636 2.976-9.067 2.412-12.068-1.252l-45.871-56.027c-3-3.666-2.483-9.1 1.153-12.078l29.713-24.328c3.637-2.976 9.067-2.413 12.069 1.253l45.87 56.025c3.002 3.666 2.482 9.102-1.155 12.08l-29.71 24.327z"/><path fill="#F33" d="m138.959 235.81-27.021 22.124c-2.44 1.997-2.789 5.644-.774 8.104l38.625 47.176c2.014 2.46 5.658 2.84 8.098.84l27.021-22.124c2.44-1.997 2.789-5.644.774-8.104l-38.625-47.175c-2.014-2.461-5.659-2.838-8.098-.842z"/><path fill="#E1E1E1" d="m178.277 302.669-8.964 7.34a1.502 1.502 0 0 0-.202 2.11c.523.639 1.472.737 2.108.217l8.963-7.34c.635-.519.726-1.468.202-2.107a1.503 1.503 0 0 0-2.107-.22z"/></g><g style="display:block"><path fill="#FFF" d="M9.9-3.16c.18 0 .22.06.22.21v.36H3.26c-1.26 0-1.95.64-1.95 1.63v.17c0 .99.69 1.86 1.95 1.86h9.3c.57 0 .79-.42.79-.79 0-.42-.24-.84-.79-.84H4.6c-.22 0-.31-.12-.31-.26v-.04c0-.14.09-.27.31-.27h8.39v-2.2c0-1.08-.44-1.45-1.67-1.45H2.21c-.5 0-.74.42-.74.8 0 .41.22.82.74.82H9.9zM4.75-5.17c1.99 0 3.72-.91 3.72-2.78v-.52c0-.29-.08-.54-.22-.78.67-.01.98-.44.98-.94 0-.51-.32-.98-1.02-.98H6.16c-.06-.73-.6-1.18-1.41-1.18-.8 0-1.35.44-1.41 1.18H1.3c-.69 0-1.05.47-1.05.98 0 .49.34.93 1 .94-.15.24-.22.49-.22.78v.52c0 1.87 1.73 2.78 3.72 2.78zm5.34.04h2.8v-2.34h.43c.85 0 1.12-.62 1.12-1.2 0-.56-.26-1.2-1.12-1.2h-.43v-.9c0-.9-.67-1.4-1.4-1.4-.75 0-1.4.48-1.4 1.4v5.64zM4.75-7.05c-.58 0-1.15-.3-1.15-.96v-.49c0-.66.57-.96 1.15-.96s1.16.3 1.16.96v.49c0 .66-.58.96-1.16.96zm21.7 8.12c.85 0 1.18-.52 1.18-1.1 0-.56-.32-1.08-1.18-1.08h-7.66c-.31 0-.38-.05-.38-.36v-.96c0-.94-.62-1.39-1.41-1.39-.79 0-1.45.44-1.45 1.39v1.44c0 1.51.42 2.06 2 2.06h8.9zm-7.66-5.45c2.4 0 4.04-1.03 4.04-3.32v-.94c0-2.29-1.64-3.33-4.04-3.33-2.39 0-4.03 1.04-4.03 3.33v.94c0 2.29 1.64 3.32 4.03 3.32zm5.63 2.18h2.85v-8.57c0-.9-.69-1.4-1.43-1.4s-1.42.48-1.42 1.4v8.57zm-5.63-4.26c-.74 0-1.27-.34-1.27-1.13v-1.17c0-.77.53-1.14 1.27-1.14.75 0 1.27.37 1.27 1.14v1.17c0 .79-.52 1.13-1.27 1.13z" aria-label="할인" font-family="Jalnan OTF" font-size="14" font-weight="400" style="display:inherit" transform="rotate(-39.309 461.044 -47.524)"/></g><g style="display:block"><path fill="#FFF" d="M8.4.51c.81 0 1.06-.62 1.06-1.17 0-.54-.24-1.19-1.06-1.19H4.07c-.25 0-.36-.08-.36-.41V-4.5h3.78c.8 0 1.12-.58 1.12-1.15 0-.6-.31-1.17-1.12-1.17H3.71v-2.06c0-.33.11-.41.36-.41h3.76c.8 0 1.05-.65 1.05-1.2 0-.54-.24-1.18-1.05-1.18H3.06c-1.83 0-2.17.42-2.17 2.18v7.8c0 1.76.34 2.2 2.17 2.2H8.4zm4.87.56v-11.84c0-.92-.67-1.4-1.41-1.4-.75 0-1.41.48-1.41 1.4V1.07h2.82zm2.37-7.09c-.64-.01-1.03.38-1.08.96-.04.65.38 1.04 1.01 1.13.15.02.33.02.47.02 2.25-.01 4.11-.97 4.8-2.98h1.15v2.58h2.43v-6.66c0-.77-.58-1.2-1.21-1.2-.65 0-1.22.41-1.22 1.2v1.86h-.86v-.9c0-1.16-.4-1.72-1.8-1.72h-3.57c-.72 0-1 .56-1 1.04 0 .5.3 1.09 1 1.09h2.79c.2 0 .29.07.29.27v.45h-3.2c-.72 0-1.01.53-1.01 1.01s.3 1 1.01 1l1.87-.01c.28 0 .56-.06.83-.16-.52.71-1.42 1.05-2.7 1.02zm7.26 3.24c0-.84-.54-1.2-1.27-1.24-.74-.04-1.21.26-1.61 1.14-.56 1.29-2.41 1.79-3.68 1.74-.65-.03-1.17.35-1.21 1.04-.04.72.48 1.23 1.15 1.3 1.72.18 4.21-.55 5.59-1.86 1.52-.19 2.83.52 3.17 1.73h2.89c-.39-2.85-2.85-3.89-5.03-3.81v-.04zm2.13-1.04h2.46v-7.15c0-.77-.6-1.2-1.24-1.2-.65 0-1.22.41-1.22 1.2v7.15z" aria-label="티켓" font-family="Jalnan OTF" font-size="14" font-weight="400" style="display:inherit" transform="rotate(-39.309 486.047 -56.182)"/></g><g style="display:block"><path fill="#FFF" d="M255.578 257.458c-5.863 0-10.929 3.464-13.404 8.506-2.474-5.042-7.538-8.506-13.402-8.506-8.296 0-15.022 6.921-15.022 15.459 0 8.539 6.726 15.457 15.022 15.457 5.864 0 10.928-3.464 13.402-8.507 2.475 5.043 7.541 8.507 13.404 8.507 8.294 0 15.021-6.918 15.021-15.457 0-8.538-6.727-15.459-15.021-15.459z"/><path fill="#D11" d="M253.644 259.604c0 7.635-5.582 12.813-12.466 12.813-6.887 0-12.468-5.178-12.468-12.813 0-7.635 5.581-18.103 12.468-18.103 6.884 0 12.466 10.468 12.466 18.103z"/><path fill="#221F1F" d="M250.651 262.924c0 2.772-4.018 6.502-8.975 6.502-4.959 0-8.977-3.73-8.977-6.502 0-2.771 4.018-5.466 8.977-5.466 4.957 0 8.975 2.695 8.975 5.466z"/></g><g style="display:block"><path fill="#FFDA6E" d="M200.165 307.581c1.274 10.57-8.188 19.715-21.66 20.688-13.473.974-24.847-6.258-24.997-16.58-.154-10.322 10.009-19.98 22.345-21.203 12.346-1.218 23.04 6.526 24.312 17.095z"/><path fill="none" stroke="#DAAA4D" stroke-width="3.5" d="M200.165 307.581c1.274 10.57-8.188 19.715-21.66 20.688-13.473.974-24.847-6.258-24.997-16.58-.154-10.322 10.009-19.98 22.345-21.203 12.346-1.218 23.04 6.526 24.312 17.095z"/></g><g style="display:block"><path fill="#FFDA6E" d="M289.766 309.105c.454 10.638 11.269 18.132 24.722 16.914 13.448-1.218 23.505-10.197 21.985-20.408-1.519-10.208-13.111-18.098-25.483-17.308-12.379.792-21.676 10.167-21.224 20.802z"/><path fill="none" stroke="#DAAA4D" stroke-width="3.5" d="M289.766 309.105c.454 10.638 11.269 18.132 24.722 16.914 13.448-1.218 23.505-10.197 21.985-20.408-1.519-10.208-13.111-18.098-25.483-17.308-12.379.792-21.676 10.167-21.224 20.802z"/></g><path fill="#221F1F" d="M5.984.001A5.982 5.982 0 0 1 .001 5.984 5.983 5.983 0 0 1-5.984.001 5.983 5.983 0 0 1 .001-5.984 5.983 5.983 0 0 1 5.984.001z" style="display:block" transform="translate(205.484 250.234)"/><path fill="#221F1F" d="M5.984.001A5.982 5.982 0 0 1 .001 5.984 5.983 5.983 0 0 1-5.984.001 5.983 5.983 0 0 1 .001-5.984 5.983 5.983 0 0 1 5.984.001z" style="display:block" transform="translate(277.484 250.484)"/></g></svg>