<svg xmlns="http://www.w3.org/2000/svg" width="500" height="500" style="width:100%;height:100%;transform:translate3d(0,0,0)"><defs><clipPath id="a"><path d="M0 0h500v500H0z"/></clipPath></defs><g clip-path="url(#a)"><g style="display:block"><path fill="#FDD300" d="m396.839 321.138-2.87-1.462c-1.669-8.439-9.129-18.774-20.826-24.738-11.698-5.963-24.444-5.928-32.245-2.317l-2.878-1.467-3.215 6.308.009.005c-.073.12-.141.253-.21.387-5.04 9.89 4.044 24.611 20.286 32.89 16.241 8.28 33.492 6.983 38.533-2.906.068-.134.137-.267.191-.397l.01.005 3.215-6.308z"/><path fill="none" stroke="#C28909" stroke-width="2.2" d="m396.839 321.138-2.87-1.462c-1.669-8.439-9.129-18.774-20.826-24.738-11.698-5.963-24.444-5.928-32.245-2.317l-2.878-1.467-3.215 6.308.009.005c-.073.12-.141.253-.21.387-5.04 9.89 4.044 24.611 20.286 32.89 16.241 8.28 33.492 6.983 38.533-2.906.068-.134.137-.267.191-.397l.01.005 3.215-6.308z"/></g><path fill="#FDD300" d="M33.009.003c0 11.1-14.78 20.09-33.01 20.09-4.81 0-9.37-.62-13.49-1.75-11.51-3.14-19.52-10.17-19.52-18.34 0-11.1 14.78-20.1 33.01-20.1 18.23 0 33.01 9 33.01 20.1" style="display:block" transform="rotate(27.011 -450.667 918.686)"/><g style="display:block"><path fill="#FDD300" d="M397.48 319.88c-5.041 9.89-22.292 11.187-38.534 2.907-4.285-2.184-8.066-4.808-11.223-7.686-8.829-8.024-12.772-17.925-9.062-25.204 5.042-9.89 22.297-11.195 38.538-2.916 16.242 8.28 25.322 23.01 20.28 32.9z"/><path fill="none" stroke="#C28909" stroke-width="2.2" d="M397.48 319.88c-5.041 9.89-22.292 11.187-38.534 2.907-4.285-2.184-8.066-4.808-11.223-7.686-8.829-8.024-12.772-17.925-9.062-25.204 5.042-9.89 22.297-11.195 38.538-2.916 16.242 8.28 25.322 23.01 20.28 32.9z"/></g><g opacity=".5" style="display:block"><path fill="none" stroke="#FFF" stroke-linecap="round" stroke-linejoin="round" stroke-width="3" d="M343.385 292.296c4.028-7.902 17.878-8.913 30.938-2.255" opacity="1"/></g><path fill="none" stroke="#C1890A" stroke-width="1.5" d="M-.001 4.177v-8.35" style="display:block" transform="rotate(27.011 -486.343 870.97)"/><path fill="none" stroke="#C1890A" stroke-width="1.5" d="M-.001 4.031v-8.06" style="display:block" transform="rotate(27.011 -493.501 884.446)"/><path fill="none" stroke="#C1890A" stroke-width="1.5" d="M-.001 4.313v-8.63" style="display:block" transform="rotate(27.011 -504.625 942.555)"/><path fill="none" stroke="#C1890A" stroke-width="1.5" d="M-.001 4.177v-8.35" style="display:block" transform="rotate(27.011 -475.147 859.096)"/><g opacity=".43" style="display:block"><path fill="#FFF" d="m369.717 306.604-4.704-2.398 2.53-4.962 4.704 2.398c2.236 1.14 2.317 2.764 1.69 3.993-.626 1.23-1.984 2.11-4.22.97zM358.1 312.3c1.238.632 2.555.45 3.1-.62l2.157-4.231 5.078 2.588c4.98 2.54 8.474.728 9.936-2.14 1.467-2.878.88-6.77-4.1-9.308l-7.02-3.579c-1.488-.758-2.904-.447-3.53.782l-6.95 13.631c-.544 1.07.082 2.242 1.329 2.877z" opacity="1"/></g><path fill="#C1890A" d="M.978-.569h-5.28v-5.57h5.28c2.51 0 3.32 1.41 3.32 2.79 0 1.38-.81 2.78-3.32 2.78zM-6.785 9.782c1.39 0 2.48-.76 2.48-1.96v-4.75h5.7c5.59 0 7.88-3.2 7.88-6.42 0-3.23-2.29-6.43-7.88-6.43h-7.88c-1.67 0-2.79.92-2.79 2.3v15.3c0 1.2 1.09 1.96 2.49 1.96z" style="display:block" transform="rotate(27.011 -452.313 919.542)"/><g style="display:block"><path fill="#FDD300" d="m185.518 266.398-3.126 1.805c-8.906-3.565-23.129-2.86-35.824 4.47-12.696 7.33-20.41 19.29-21.784 28.79l-3.118 1.8 3.955 6.85.008-.005c.072.144.157.29.237.43 6.2 10.738 25.51 11.183 43.142 1.003s26.91-27.13 20.71-37.869c-.08-.138-.174-.28-.254-.419l.009-.005-3.955-6.85z"/><path fill="none" stroke="#C28909" stroke-width="2.2" d="m185.518 266.398-3.126 1.805c-8.906-3.565-23.129-2.86-35.824 4.47-12.696 7.33-20.41 19.29-21.784 28.79l-3.118 1.8 3.955 6.85.008-.005c.072.144.157.29.237.43 6.2 10.738 25.51 11.183 43.142 1.003s26.91-27.13 20.71-37.869c-.08-.138-.174-.28-.254-.419l.009-.005-3.955-6.85z"/></g><path fill="#FDD300" d="M36.866-.002c0 12.4-16.51 22.44-36.87 22.44-5.36 0-10.46-.69-15.06-1.95-12.85-3.51-21.8-11.36-21.8-20.49 0-12.39 16.5-22.44 36.86-22.44s36.87 10.05 36.87 22.44" style="display:block" transform="rotate(-30 605.36 -143.402)"/><g style="display:block"><path fill="#FDD300" d="M184.73 265.033c6.2 10.74-3.078 27.689-20.71 37.869-4.642 2.68-9.404 4.632-14.018 5.841-12.883 3.386-24.56 1.062-29.124-6.845-6.195-10.73 3.07-27.683 20.702-37.863s36.955-9.732 43.15.998z"/><path fill="none" stroke="#C28909" stroke-width="2.2" d="M184.73 265.033c6.2 10.74-3.078 27.689-20.71 37.869-4.642 2.68-9.404 4.632-14.018 5.841-12.883 3.386-24.56 1.062-29.124-6.845-6.195-10.73 3.07-27.683 20.702-37.863s36.955-9.732 43.15.998z"/></g><g opacity=".5" style="display:block"><path fill="none" stroke="#FFF" stroke-linecap="round" stroke-linejoin="round" stroke-width="3" d="M126.004 298.944c-4.955-8.583 2.522-22.172 16.699-30.357" opacity="1"/></g><path fill="none" stroke="#C1890A" stroke-width="1.5" d="M0 4.66v-9.32" style="display:block" transform="rotate(-30 659.898 -118.307)"/><path fill="none" stroke="#C1890A" stroke-width="1.5" d="M0 4.501v-9" style="display:block" transform="rotate(-30 659.758 -133.682)"/><path fill="none" stroke="#C1890A" stroke-width="1.5" d="M0 4.819v-9.64" style="display:block" transform="rotate(-30 641.663 -190.485)"/><path fill="none" stroke="#C1890A" stroke-width="1.5" d="M0 4.66v-9.32" style="display:block" transform="rotate(-30 655.695 -102.41)"/><g opacity=".43" style="display:block"><path fill="#FFF" d="m155.418 282.972-5.11 2.95-3.11-5.386 5.11-2.95c2.425-1.4 3.998-.496 4.768.838.775 1.342.767 3.148-1.658 4.548zm-1.734 14.345c1.35-.78 1.974-2.121 1.304-3.282l-2.65-4.59 5.516-3.185c5.404-3.12 5.836-7.491 4.036-10.609-1.8-3.118-5.807-4.938-11.21-1.818l-7.622 4.4c-1.62.935-2.187 2.452-1.417 3.786l8.54 14.791c.67 1.16 2.152 1.287 3.503.507z" opacity="1"/></g><path fill="#C1890A" d="M1.096-.635h-5.9v-6.22h5.9c2.8 0 3.71 1.57 3.71 3.11 0 1.55-.91 3.11-3.71 3.11zm-8.674 11.556c1.56 0 2.77-.85 2.77-2.19v-5.3h6.37c6.24 0 8.8-3.57 8.8-7.17s-2.56-7.18-8.8-7.18h-8.8c-1.87 0-3.12 1.03-3.12 2.57v17.08c0 1.34 1.22 2.19 2.78 2.19z" style="display:block" transform="rotate(-30 606.408 -144.953)"/><g opacity=".51" style="display:block"><path fill="#FD0" d="M85.64 318.29s-4.735-17.994-6.69-17.994c-1.965 0-6.7 17.994-6.7 17.994s-12.233 4.422-12.233 6.14c0 1.727 12.233 6.15 12.233 6.15s4.65 17.984 6.7 17.984c2.04 0 6.69-17.984 6.69-17.984s12.234-4.356 12.234-6.15c0-1.784-12.233-6.14-12.233-6.14" opacity="1"/></g><g opacity=".608" style="display:block"><path fill="#FD0" d="M54.982 355.075s-2.477-8.465-3.512-8.465c-1.025 0-3.511 8.465-3.511 8.465s-6.425 2.079-6.425 2.895c0 .807 6.425 2.894 6.425 2.894s2.439 8.466 3.511 8.466c1.073 0 3.512-8.466 3.512-8.466s6.424-2.05 6.424-2.894c0-.845-6.424-2.895-6.424-2.895" opacity="1"/></g><path fill="#FD0" d="M5.814-4.829s-4.11-14.12-5.81-14.12c-1.71 0-5.82 14.12-5.82 14.12s-10.64 3.48-10.64 4.83 10.64 4.83 10.64 4.83 4.04 14.12 5.82 14.12c1.78 0 5.81-14.12 5.81-14.12s10.64-3.42 10.64-4.83c0-1.41-10.64-4.83-10.64-4.83" style="display:block" transform="translate(457.456 310.949)"/><g opacity=".62" style="display:block"><path fill="#FD0" d="M238.954 247.382s-3.887-13.353-5.494-13.353c-1.617 0-5.504 13.353-5.504 13.353s-10.062 3.291-10.062 4.568c0 1.277 10.062 4.568 10.062 4.568s3.82 13.353 5.504 13.353c1.683 0 5.494-13.353 5.494-13.353s10.063-3.235 10.063-4.568c0-1.333-10.063-4.568-10.063-4.568" opacity="1"/></g><g opacity=".937" style="display:block"><path fill="#FD0" d="M119.25 171.01S115.51 158 113.96 158c-1.55 0-5.29 13.01-5.29 13.01s-9.67 3.2-9.67 4.44c0 1.25 9.67 4.45 9.67 4.45s3.67 13.01 5.29 13.01 5.29-13.01 5.29-13.01 9.67-3.15 9.67-4.45c0-1.29-9.67-4.44-9.67-4.44" opacity="1"/></g><g style="display:block"><path fill="#FDD300" d="M223.637 100.053c5.717 21.337-6.947 43.273-28.285 48.99a39.84 39.84 0 0 1-16.693.87c-15.083-2.429-28.085-13.439-32.296-29.154-5.718-21.338 6.947-43.273 28.284-48.99 21.337-5.718 43.272 6.947 48.99 28.284z"/><path fill="none" stroke="#C28909" stroke-width="2.2" d="M223.637 100.053c5.717 21.337-6.947 43.273-28.285 48.99a39.84 39.84 0 0 1-16.693.87c-15.083-2.429-28.085-13.439-32.296-29.154-5.718-21.338 6.947-43.273 28.284-48.99 21.337-5.718 43.272 6.947 48.99 28.284z"/></g><g style="display:block"><path fill="#FDD300" d="M222.637 98.053c5.717 21.337-6.947 43.272-28.284 48.99a39.84 39.84 0 0 1-16.694.87c-15.083-2.43-28.085-13.44-32.296-29.155-5.718-21.337 6.947-43.272 28.284-48.99 21.337-5.717 43.273 6.947 48.99 28.285z"/><path fill="none" stroke="#C28909" stroke-width="2.2" d="M222.637 98.053c5.717 21.337-6.947 43.272-28.284 48.99a39.84 39.84 0 0 1-16.694.87c-15.083-2.43-28.085-13.44-32.296-29.155-5.718-21.337 6.947-43.272 28.284-48.99 21.337-5.717 43.273 6.947 48.99 28.285z"/></g><g opacity=".5" style="display:block"><path fill="none" stroke="#FFF" stroke-linecap="round" stroke-linejoin="round" stroke-width="3" d="M151.158 117.205c-4.86-18.14 5.902-36.78 24.042-41.641" opacity="1"/></g><g opacity=".43" style="display:block"><path fill="#FFF" d="M8.99-20.74h6.85c3.27 0 4.32 2.21 4.32 4.39 0 2.17-1.05 4.39-4.32 4.39H8.99v-8.78zm0 14.5h7.4c7.25 0 10.22-5.04 10.22-10.11 0-5.08-2.97-10.12-10.22-10.12H6.16c-2.17 0-3.62 1.45-3.62 3.63V1.23c0 1.89 1.41 3.08 3.22 3.08 1.82 0 3.23-1.19 3.23-3.08v-7.47z" aria-label="P" font-family="Sandoll Gyeokdonggulim" font-size="36" font-weight="400" opacity="1" style="display:inherit" transform="rotate(-15 546.161 -599.966)"/></g><g style="display:block"><path fill="#C28A0A" d="M8.99-20.74h6.85c3.27 0 4.32 2.21 4.32 4.39 0 2.17-1.05 4.39-4.32 4.39H8.99v-8.78zm0 14.5h7.4c7.25 0 10.22-5.04 10.22-10.11 0-5.08-2.97-10.12-10.22-10.12H6.16c-2.17 0-3.62 1.45-3.62 3.63V1.23c0 1.89 1.41 3.08 3.22 3.08 1.82 0 3.23-1.19 3.23-3.08v-7.47z" aria-label="P" font-family="Sandoll Gyeokdonggulim" font-size="36" font-weight="400" style="display:inherit" transform="rotate(-15 542.863 -595.669)"/></g><g style="display:block"><path fill="#DDAA6B" d="M215.878 167.013s8.117-10.322 8.153-24.822c.025-14.51-7.195-28.004 2.594-30.315 9.79-2.302 9.763 10.814 10.955 22.88 1.193 12.065.1 23.023-5.113 33.315"/><path fill="none" stroke="#C38D47" stroke-width="2.5" d="M215.878 167.013s8.117-10.322 8.153-24.822c.025-14.51-7.195-28.004 2.594-30.315 9.79-2.302 9.763 10.814 10.955 22.88 1.193 12.065.1 23.023-5.113 33.315"/></g><g style="display:block"><path fill="#DDAA6B" d="M272.167 149.003s2.585-11.301 9.78-8.168c7.205 3.133 3.93 19.115-4.63 21.253"/><path fill="none" stroke="#C38D47" stroke-width="2.5" d="M272.167 149.003s2.585-11.301 9.78-8.168c7.205 3.133 3.93 19.115-4.63 21.253"/></g><g style="display:block"><path fill="#DDAA6B" d="M274.23 174.738c9.193 4.82 11.948.09 13.943 3.697 1.992 3.618-20.224 18.554-32.407 7.027"/><path fill="none" stroke="#C38D47" stroke-width="2.5" d="M274.23 174.738c9.193 4.82 11.948.09 13.943 3.697 1.992 3.618-20.224 18.554-32.407 7.027"/></g><g style="display:block"><path fill="#DDAA6B" d="M250.2 148.745c-17.45 12.96-35.61 26.59-39.31 8.31l-17.08 17.7s.46 1.22 1.53 3.08c-16.55-1.3-30.137-12.66-32.47-23.49-2.37-11-3.59-23.35-12.14-20.75-8.55 2.59-6.97 27.68 11.18 43.71 16.53 14.61 40.13 12.88 44.21 12.45 5.66 4.08 13.6 7.47 24.51 7.72 26.41.59 40.18-8.43 45.73-26.32 7.65-24.68-8.7-35.37-26.16-22.41"/><path fill="none" stroke="#C38D47" stroke-width="2.5" d="M250.2 148.745c-17.45 12.96-35.61 26.59-39.31 8.31l-17.08 17.7s.46 1.22 1.53 3.08c-16.55-1.3-30.137-12.66-32.47-23.49-2.37-11-3.59-23.35-12.14-20.75-8.55 2.59-6.97 27.68 11.18 43.71 16.53 14.61 40.13 12.88 44.21 12.45 5.66 4.08 13.6 7.47 24.51 7.72 26.41.59 40.18-8.43 45.73-26.32 7.65-24.68-8.7-35.37-26.16-22.41"/></g><path fill="#221F1F" d="M-5.84-5.733s-.1-6.29 5.94-5.37c6.04.93 6.81 15.1 4.62 22.3" style="display:block" transform="translate(223.787 130.825)"/><g style="display:block"><path fill="#DDAA6B" d="M200.385 179.147s-29.56 6.46-39.76-15.02c-11.75-27.53 9.23-46.41 27.2-49.63 31.03-7.97 64.98 27.46 31.05 56.25"/><path fill="none" stroke="#C38D47" stroke-width="2.5" d="M200.385 179.147s-29.56 6.46-39.76-15.02c-11.75-27.53 9.23-46.41 27.2-49.63 31.03-7.97 64.98 27.46 31.05 56.25"/></g><path fill="#221F1F" d="M-1.583-15.53c2.487-.018 4.527 9.418 6.82 16.54 2.267 7.432 6.08 10.414 5.63 14.4C9.163 21.14-5.898 13.58-8.596 1.765-11.01-8.785-6.251-13.638-1.583-15.53z" style="display:block" transform="translate(157.6 157.105)"/><path fill="#FFF" d="M13.52 15.86C33.49-10.83 11.59-31.92-3.02-33.4c-14.61-1.48-15.63 6.73-15.63 6.73-23.03-.78-34.75 17.48-24.11 38.06C-32.13 31.96-5.22 25.33-2.71 26.48c6.13 2.8 15.89 9.37 29.49 6.3 13.59-3.07 23.05-16.12 18.99-26.67-4.08-10.52-12.35-1.72-21.39 3.13-7.5 4.24-10.92 6.61-10.92 6.61" style="display:block" transform="translate(210.16 150.292)"/><g style="display:block"><path fill="#DDAA6B" d="M264.867 174.197s2.29-12.137-5.907-13.765c-9.206-1.83-6.864 15.489-6.864 15.489"/><path fill="none" stroke="#C38D47" stroke-linecap="round" stroke-linejoin="round" stroke-width="3" d="M264.867 174.197s2.29-12.137-5.907-13.765c-9.206-1.83-6.864 15.489-6.864 15.489"/></g><path fill="#CA9957" d="M13.367.147c-2.82 8.22-10.84 14.88-17.43 15.4-6.6.51-10.9-5.69-9.91-14.49.99-8.81 8.02-16.61 16.37-16.63 8.36-.02 13.78 7.49 10.97 15.72" style="display:block" transform="translate(178.527 142.018)"/><path fill="#CA9957" d="M-9.853 4.867c5.57 3.75 13.09 5.75 18.78 4.49 6.38-1.73 6.95-7.31 1.28-12.43-5.66-5.12-14.43-8.1-19.98-5.96-5.56 2.15-5.98 9.14-.08 13.9" style="display:block" transform="translate(210.647 126.445)"/><path fill="#FFF" d="M-2.097 2.467s4.22 2.46 8.15.92c1.55-2.55-3.69-8.71-10.13-6.98l-2.25 1.07" style="display:block" transform="translate(202.86 133.258)"/><path fill="#221F1F" d="M3.477-2.267c.8 1.76.62 3.62-2.09 5.02-2.71 1.39-4.19.39-4.99-1.37-.8-1.77.05-2.15 2.76-3.54 2.71-1.4 3.52-1.87 4.32-.11" style="display:block" transform="translate(197.06 130.575)"/><path fill="none" stroke="#221F1F" stroke-linecap="round" stroke-linejoin="round" stroke-width="3" d="M-.807 6.323s8.46-10.24 6.95-12.15c-1.5-1.92-12.47 2.33-12.47 2.33" style="display:block" transform="matrix(.99594 0 0 .99016 180.497 139.529)"/><path fill="none" stroke="#221F1F" stroke-linecap="round" stroke-linejoin="round" stroke-width="3" d="M5.84 4.38S-4.8 2.49-5.76 1.05c-.96-1.44 7.04-5.43 7.04-5.43" style="display:block" transform="matrix(.99669 0 0 .9919 208.195 124.983)"/><path fill="none" stroke="#221F1F" stroke-linecap="round" stroke-linejoin="round" stroke-width="2" d="M-6.327-2.92s3.67 5.27 6.78 5.74c3.11.48 5.87-.94 5.87-.94" style="display:block" transform="translate(203.833 134.232)"/><path fill="none" stroke="#221F1F" stroke-linecap="round" stroke-linejoin="round" stroke-width="2" d="M2.88-7.3S6.44-.92 2.59 3.66C-1.25 8.23-4.38 7.2-4.38 7.2" style="display:block" transform="translate(195.073 137.638)"/><path fill="#D11" d="M-4.41-13.14c1.93 2.01 8.19 2.34 8.19 2.34s7.544 14.507.174 16.927C-3.426 8.547-8.76-2.72-8.76-2.72c5.24-5.31 4.35-10.42 4.35-10.42" style="display:block" transform="rotate(.095 -113937.955 157565.389)"/><path fill="#EE7B64" d="M6.043-2.573c.41 2.35-.651 2.213-1.391 3.693-.5.79-1.23 1.39-2.27 1.71-.36.1-.71.17-1.06.21-3.25 0-5.319-1.133-7.649-4.563.83-1.31 2.58-3.01 5.96-2.64 0 0 2.36-2.64 5.2-.05.49.44.88 1.01 1.21 1.64" style="display:block" transform="matrix(1 0 0 1 204.635 150.857)"/><path fill="none" stroke="#221F1F" stroke-linecap="round" stroke-linejoin="round" stroke-width="2" d="M-4.41-13.14c1.93 2.01 8.19 2.34 8.19 2.34s7.398 14.66.028 17.08c-7.38 2.42-12.568-9-12.568-9 5.24-5.31 4.35-10.42 4.35-10.42z" style="display:block" transform="matrix(1 0 0 1 203.347 147.372)"/></g></svg>